<svg xmlns="http://www.w3.org/2000/svg" width="2251.802" height="92.2" viewBox="0 0 2251.802 92.2">
    <path fill="#000" fillRule="evenodd" stroke="#000" strokeLinecap="round" strokeWidth="0.945" d="M844.6 71.2l-9.5-50h13.2l6.1 38.6h2.4l7.6-37.6h13.8l7.6 37.6h2.4l6.1-38.6h13.2l-9.5 50h-21l-5.7-30.6-5.7 30.6h-21zm147.1-37.6v37.6h-13.4v-70h13.4v22.4q5.059-2.639 9.366-3.343A18.799 18.799 0 011004.1 20q5.869 0 9.603 2.033a11.359 11.359 0 014.197 3.867q3.458 5.369 3.769 16.039a74.179 74.179 0 01.031 2.161v27.1h-13.4V44.4a42.254 42.254 0 00-.119-3.286q-.249-3.185-1.023-5.233a9.446 9.446 0 00-.358-.831 5.119 5.119 0 00-3.37-2.721q-.937-.267-2.088-.317a12.487 12.487 0 00-.542-.012q-3.9 0-7.8 1.2l-1.3.4zm339.9 0v37.6h-13.4v-70h13.4v22.4q5.059-2.639 9.366-3.343A18.799 18.799 0 011344 20q5.869 0 9.603 2.033a11.359 11.359 0 014.197 3.867q3.458 5.369 3.769 16.039a74.179 74.179 0 01.031 2.161v27.1h-13.4V44.4a42.254 42.254 0 00-.119-3.286q-.249-3.185-1.023-5.233a9.446 9.446 0 00-.358-.831 5.119 5.119 0 00-3.37-2.721q-.937-.267-2.088-.317a12.487 12.487 0 00-.542-.012q-3.9 0-7.8 1.2l-1.3.4zm-1162.8 19v18.6h-13.4v-70h13.4V41l5.1-.9 9.9-18.9h15l-13 23.7 13.7 26.3h-15.1l-10.1-19.5-5.5.9zm1079 6V21.2h13.4v50h-13.3v-2.8a42.782 42.782 0 01-4.314 2.11q-4.542 1.89-8.186 1.89a29.149 29.149 0 01-4.911-.382q-2.506-.43-4.442-1.343a10.721 10.721 0 01-4.647-4.025 17.888 17.888 0 01-1.86-4.223q-1.347-4.368-1.651-10.982a88.208 88.208 0 01-.089-4.045V21.2h13.4v26.4a72.306 72.306 0 00.066 3.211q.208 4.657 1.072 6.745a6.111 6.111 0 00.062.144 4.037 4.037 0 002.235 2.107q.792.334 1.821.48a12.449 12.449 0 001.744.113q4.4 0 8.3-1.4l1.3-.4zM270.4 33.8v37.4H257v-50h13.3V24a35.474 35.474 0 014.545-2.277q2.568-1.05 4.96-1.46A17.71 17.71 0 01282.8 20q5.869 0 9.603 2.033A11.359 11.359 0 01296.6 25.9q3.458 5.369 3.769 16.039a74.179 74.179 0 01.031 2.161v27.1H287V44.5a43.523 43.523 0 00-.117-3.313q-.243-3.17-.991-5.212a9.474 9.474 0 00-.392-.925 5.119 5.119 0 00-3.37-2.721q-.937-.267-2.088-.317A12.487 12.487 0 00279.5 32q-4.1 0-7.9 1.4l-1.2.4zm1375.5 0v37.4h-13.4v-50h13.3V24a35.474 35.474 0 014.545-2.277q2.568-1.05 4.96-1.46A17.71 17.71 0 011658.3 20q5.869 0 9.603 2.033a11.359 11.359 0 014.197 3.867q3.458 5.369 3.769 16.039a74.179 74.179 0 01.031 2.161v27.1h-13.4V44.5a43.523 43.523 0 00-.117-3.313q-.243-3.17-.991-5.212a9.474 9.474 0 00-.392-.925 5.119 5.119 0 00-3.37-2.721q-.937-.267-2.088-.317A12.487 12.487 0 001655 32q-4.1 0-7.9 1.4l-1.2.4zm183.5 0v37.4H1816v-50h13.3V24a35.474 35.474 0 014.545-2.277q2.568-1.05 4.96-1.46A17.71 17.71 0 011841.8 20q5.869 0 9.603 2.033a11.359 11.359 0 014.197 3.867q3.458 5.369 3.769 16.039a74.179 74.179 0 01.031 2.161v27.1H1846V44.5a43.523 43.523 0 00-.117-3.313q-.243-3.17-.991-5.212a9.474 9.474 0 00-.392-.925 5.119 5.119 0 00-3.37-2.721q-.937-.267-2.088-.317a12.487 12.487 0 00-.542-.012q-4.1 0-7.9 1.4l-1.2.4zm193.7 0v37.4h-13.4v-50h13.3V24a35.474 35.474 0 014.545-2.277q2.568-1.05 4.96-1.46A17.71 17.71 0 012035.5 20q5.869 0 9.603 2.033a11.359 11.359 0 014.197 3.867q3.458 5.369 3.769 16.039a74.179 74.179 0 01.031 2.161v27.1h-13.4V44.5a43.523 43.523 0 00-.117-3.313q-.243-3.17-.991-5.212a9.474 9.474 0 00-.392-.925 5.119 5.119 0 00-3.37-2.721q-.937-.267-2.088-.317a12.487 12.487 0 00-.542-.012q-4.1 0-7.9 1.4l-1.2.4zM728.5 22.6l-.2 11.1q-11.973-1.545-17-1.598a33.064 33.064 0 00-.35-.002q-4.95 0-6.4.9a2.945 2.945 0 00-1.399 2.156 4.53 4.53 0 00-.051.694 2.976 2.976 0 00.228 1.193q.439 1.014 1.722 1.507a11.475 11.475 0 00.946.306q2.315.66 8.044 1.711a316.841 316.841 0 001.01.183 40.409 40.409 0 014.16.962q4.217 1.233 6.615 3.188a10.475 10.475 0 01.675.6q3.4 3.3 3.4 10.7a18.449 18.449 0 01-1.256 7.088q-3.306 7.992-15.309 8.975a43.386 43.386 0 01-3.535.137q-6.6 0-16-1.8l-3.2-.6.4-11.2a398.695 398.695 0 005.563.682q8.012.918 11.687.918a39.186 39.186 0 002.103-.052q3.157-.17 4.497-.898 1.677-.91 1.747-2.693a4.001 4.001 0 00.003-.157 3.026 3.026 0 00-.305-1.377q-.446-.888-1.545-1.423a8.11 8.11 0 00-1.067-.405q-1.86-.588-5.819-1.318a170.248 170.248 0 00-2.714-.477 40.957 40.957 0 01-4.407-.973q-4.516-1.283-7.143-3.427-3.734-3.046-3.799-10.777a32.741 32.741 0 01-.001-.273 18.564 18.564 0 01.609-4.901 12.857 12.857 0 014.791-7.099 19.476 19.476 0 017.28-3.329q2.75-.653 5.952-.714a34.918 34.918 0 01.668-.007 50.678 50.678 0 014.107.186q4.98.408 11.993 1.714l3.3.6zm1423.6 0l-.2 11.1q-11.973-1.545-17-1.598a33.064 33.064 0 00-.35-.002q-4.95 0-6.4.9a2.945 2.945 0 00-1.399 2.156 4.53 4.53 0 00-.051.694 2.976 2.976 0 00.228 1.193q.439 1.014 1.722 1.507a11.475 11.475 0 00.946.306q2.315.66 8.044 1.711a316.841 316.841 0 001.01.183 40.409 40.409 0 014.16.962q4.217 1.233 6.615 3.188a10.475 10.475 0 01.675.6q3.4 3.3 3.4 10.7a18.449 18.449 0 01-1.256 7.088q-3.306 7.992-15.309 8.975a43.386 43.386 0 01-3.535.137q-6.6 0-16-1.8l-3.2-.6.4-11.2a398.695 398.695 0 005.563.682q8.012.918 11.687.918a39.186 39.186 0 002.103-.052q3.157-.17 4.497-.898 1.677-.91 1.747-2.693a4.001 4.001 0 00.003-.157 3.026 3.026 0 00-.305-1.377q-.446-.888-1.545-1.423a8.11 8.11 0 00-1.067-.405q-1.86-.588-5.819-1.318a170.248 170.248 0 00-2.714-.477 40.957 40.957 0 01-4.407-.973q-4.516-1.283-7.143-3.427-3.734-3.046-3.799-10.777a32.741 32.741 0 01-.001-.273 18.564 18.564 0 01.609-4.901 12.857 12.857 0 014.791-7.099 19.476 19.476 0 017.28-3.329q2.75-.653 5.952-.714a34.918 34.918 0 01.668-.007 50.678 50.678 0 014.107.186q4.981.408 11.993 1.714l3.3.6zm47.2 0l-.2 11.1q-11.973-1.545-17-1.598a33.064 33.064 0 00-.35-.002q-4.95 0-6.4.9a2.945 2.945 0 00-1.399 2.156 4.53 4.53 0 00-.051.694 2.976 2.976 0 00.228 1.193q.439 1.014 1.722 1.507a11.475 11.475 0 00.946.306q2.315.66 8.044 1.711a316.841 316.841 0 001.01.183 40.409 40.409 0 014.16.962q4.217 1.233 6.615 3.188a10.475 10.475 0 01.675.6q3.4 3.3 3.4 10.7a18.449 18.449 0 01-1.256 7.088q-3.306 7.992-15.309 8.975a43.386 43.386 0 01-3.535.137q-6.6 0-16-1.8l-3.2-.6.4-11.2a398.695 398.695 0 005.563.682q8.012.918 11.687.918a39.186 39.186 0 002.103-.052q3.157-.17 4.497-.898 1.677-.91 1.747-2.693a4.001 4.001 0 00.003-.157 3.026 3.026 0 00-.305-1.377q-.446-.888-1.545-1.423a8.11 8.11 0 00-1.067-.405q-1.86-.588-5.819-1.318a170.248 170.248 0 00-2.714-.477 40.957 40.957 0 01-4.407-.973q-4.516-1.283-7.143-3.427-3.734-3.046-3.799-10.777a32.741 32.741 0 01-.001-.273 18.564 18.564 0 01.609-4.901A12.857 12.857 0 012166 24.15a19.476 19.476 0 017.28-3.329q2.75-.653 5.952-.714a34.918 34.918 0 01.668-.007 50.678 50.678 0 014.107.186q4.981.408 11.993 1.714l3.3.6zM449.1 46.1l-13.7-24.9h14.3l8 15.5 8.1-15.5h14.3l-14.2 24.5 14.2 25.5h-14.3l-8.1-15.3-8 15.3h-14.3l13.7-25.1zM0 71.2v-68h26.7a42.205 42.205 0 015.827.375q2.95.412 5.334 1.279A16.528 16.528 0 0142.6 7.45a13.118 13.118 0 014.202 6.191q.755 2.225.991 4.964A30.277 30.277 0 0147.9 21.2a31.095 31.095 0 01-.183 3.488Q47.342 28 46.2 30.25a12.971 12.971 0 01-2.391 3.256Q42.386 34.941 40.4 36.2a15.993 15.993 0 013.488 1.988A12.351 12.351 0 0147.05 41.7q1.572 2.632 1.994 6.76a31.866 31.866 0 01.156 3.24 26.742 26.742 0 01-.559 5.657q-.755 3.483-2.526 6.071A14.392 14.392 0 0143.4 66.4q-4.842 4.008-12.96 4.669a41.127 41.127 0 01-3.34.131H0zm1476.6-38.6h-12.1v38.6h-13.4V32.6h-5.4V21.2h5.4V19q0-8.464 1.965-12.813A10.213 10.213 0 011454.3 4.1a9.359 9.359 0 013.927-2.873q1.588-.652 3.597-.957A25.877 25.877 0 011465.7 0q3.52 0 9.048.957A106.315 106.315 0 011475 1l2.1.3-.2 10.9q-4.4-.2-7.4-.2-1.594 0-2.623.452a2.981 2.981 0 00-1.377 1.148 4.889 4.889 0 00-.506 1.153q-.494 1.605-.494 4.347v2.1h12.1v11.4zm57.7 0h-12.1v38.6h-13.4V32.6h-5.4V21.2h5.4V19q0-8.464 1.965-12.813A10.213 10.213 0 011512 4.1a9.359 9.359 0 013.927-2.873q1.588-.652 3.597-.957A25.877 25.877 0 011523.4 0q3.52 0 9.048.957a106.315 106.315 0 01.252.043l2.1.3-.2 10.9q-4.4-.2-7.4-.2-1.594 0-2.623.452a2.981 2.981 0 00-1.377 1.148 4.889 4.889 0 00-.506 1.153q-.494 1.605-.494 4.347v2.1h12.1v11.4zm441.8 0H1964v38.6h-13.4V32.6h-5.4V21.2h5.4V19q0-8.464 1.965-12.813A10.213 10.213 0 011953.8 4.1a9.359 9.359 0 013.927-2.873q1.588-.652 3.597-.957A25.877 25.877 0 011965.2 0q3.52 0 9.048.957a106.315 106.315 0 01.252.043l2.1.3-.2 10.9q-4.4-.2-7.4-.2-1.594 0-2.623.452A2.981 2.981 0 001965 13.6a4.889 4.889 0 00-.506 1.153Q1964 16.358 1964 19.1v2.1h12.1v11.4zM98 36.8v20.8q.2 2.4.8 3.35a2.203 2.203 0 00.633.636q.609.416 1.626.66a8.824 8.824 0 00.241.054l-.4 10.1q-5.1 0-8.15-.7a16.401 16.401 0 01-3.591-1.301A21.699 21.699 0 0186.6 68.9a34.111 34.111 0 01-10.969 3.282 31.854 31.854 0 01-3.731.218 21.047 21.047 0 01-6.228-.841q-6.845-2.122-8.637-9.591A25.651 25.651 0 0156.4 56q0-8 4.3-11.35Q65 41.3 73.9 40.7l10.7-.8v-3.1q0-2.723-1.08-3.941a2.815 2.815 0 00-.32-.309q-1.311-1.076-4.111-1.145a15.854 15.854 0 00-.389-.005l-18.8.8-.4-9.3Q70.2 20 79.85 20a36.862 36.862 0 014.874.299q5.938.795 9.026 3.701a12.03 12.03 0 012.979 4.611Q98 31.988 98 36.8zm995.9 0v20.8q.2 2.4.8 3.35a2.203 2.203 0 00.633.636q.609.416 1.626.66a8.824 8.824 0 00.241.054l-.4 10.1q-5.1 0-8.15-.7a16.401 16.401 0 01-3.591-1.301 21.699 21.699 0 01-2.559-1.499 34.111 34.111 0 01-10.969 3.282 31.854 31.854 0 01-3.731.218 21.047 21.047 0 01-6.228-.841q-6.845-2.122-8.637-9.591A25.651 25.651 0 011052.3 56q0-8 4.3-11.35 4.3-3.35 13.2-3.95l10.7-.8v-3.1q0-2.723-1.08-3.941a2.815 2.815 0 00-.32-.309q-1.311-1.076-4.111-1.145a15.854 15.854 0 00-.389-.005l-18.8.8-.4-9.3q10.7-2.9 20.35-2.9a36.862 36.862 0 014.874.299q5.938.795 9.026 3.701a12.03 12.03 0 012.979 4.611q1.271 3.377 1.271 8.189zM501 92.2h-13.4v-71h13.3v2.7q4.231-2.538 7.784-3.424A14.957 14.957 0 01512.3 20q10.1 0 14.9 6.05 4.217 5.316 4.729 17.155A78.668 78.668 0 01532 46.6a62.705 62.705 0 01-.331 6.697q-.755 7.002-3.231 11.13a13.615 13.615 0 01-1.738 2.323 15.71 15.71 0 01-5.939 3.863q-2.546.977-5.735 1.42a41.72 41.72 0 01-5.726.367 41.592 41.592 0 01-4.095-.211 52.384 52.384 0 01-3.005-.389l-1.2-.2v20.6zm-159.6-91h13.4v70h-13.3v-2.1a44.981 44.981 0 01-4.389 1.811q-2.243.78-4.25 1.151a19.045 19.045 0 01-3.461.338 29.443 29.443 0 01-5.467-.471q-6.609-1.251-9.733-5.829-3.898-5.711-4.263-17.464a80.307 80.307 0 01-.037-2.486q0-13.65 5.15-19.9 4.914-5.963 14.606-6.236A33.432 33.432 0 01330.6 20a28.702 28.702 0 012.182.093q2.217.171 5.216.654A110.22 110.22 0 01339.5 21l1.9.4V1.2zm1559 0h13.4v70h-13.3v-2.1a44.981 44.981 0 01-4.389 1.811q-2.243.78-4.25 1.151a19.045 19.045 0 01-3.461.338 29.443 29.443 0 01-5.467-.471q-6.609-1.251-9.733-5.829-3.898-5.711-4.263-17.464a80.307 80.307 0 01-.037-2.486q0-13.65 5.15-19.9 4.914-5.963 14.606-6.236a33.432 33.432 0 01.944-.014 28.702 28.702 0 012.182.093q2.217.171 5.216.654a110.22 110.22 0 011.502.253l1.9.4V1.2zM242.8 60l2.8-.3.2 9.9a108.865 108.865 0 01-9.641 1.914q-5.002.748-9.507.865A63.743 63.743 0 01225 72.4a33.582 33.582 0 01-6.015-.501q-3.274-.597-5.813-1.906A14.858 14.858 0 01208.6 66.4a17.761 17.761 0 01-3.058-5.417Q203.5 55.443 203.5 46.9a47.819 47.819 0 01.947-9.985q3.127-14.579 16.579-16.592A30.92 30.92 0 01225.6 20a30.172 30.172 0 018.759 1.16q9.628 2.924 12.148 13.217a34.664 34.664 0 01.893 8.223l-1 9.3H217a14.509 14.509 0 00.246 2.447q.533 2.746 2.204 4.203a7.636 7.636 0 002.758 1.505q1.723.545 3.992.545a246.806 246.806 0 008.279-.131q3.888-.131 7.343-.392A144.617 144.617 0 00242.8 60zM426 60l2.8-.3.2 9.9a108.865 108.865 0 01-9.641 1.914q-5.002.748-9.507.865a63.743 63.743 0 01-1.652.021 33.582 33.582 0 01-6.015-.501q-3.274-.597-5.813-1.906A14.858 14.858 0 01391.8 66.4a17.761 17.761 0 01-3.058-5.417Q386.7 55.443 386.7 46.9a47.819 47.819 0 01.947-9.985q3.127-14.579 16.579-16.592A30.92 30.92 0 01408.8 20a30.172 30.172 0 018.759 1.16q9.628 2.924 12.148 13.217a34.664 34.664 0 01.893 8.223l-1 9.3h-29.4a14.509 14.509 0 00.246 2.447q.533 2.746 2.204 4.203a7.636 7.636 0 002.758 1.505q1.723.545 3.992.545a246.806 246.806 0 008.279-.131q3.888-.131 7.343-.392A144.617 144.617 0 00426 60zm152.8 0l2.8-.3.2 9.9a108.865 108.865 0 01-9.641 1.914q-5.002.748-9.507.865A63.743 63.743 0 01561 72.4a33.582 33.582 0 01-6.015-.501q-3.274-.597-5.813-1.906A14.858 14.858 0 01544.6 66.4a17.761 17.761 0 01-3.058-5.417Q539.5 55.443 539.5 46.9a47.819 47.819 0 01.947-9.985q3.127-14.579 16.579-16.592A30.92 30.92 0 01561.6 20a30.172 30.172 0 018.759 1.16q9.628 2.924 12.148 13.217a34.664 34.664 0 01.893 8.223l-1 9.3H553a14.509 14.509 0 00.246 2.447q.533 2.746 2.204 4.203a7.636 7.636 0 002.758 1.505q1.723.545 3.992.545a246.806 246.806 0 008.279-.131q3.888-.131 7.343-.392A144.617 144.617 0 00578.8 60zm197.6 0l2.8-.3.2 9.9a108.865 108.865 0 01-9.641 1.914q-5.002.748-9.507.865a63.743 63.743 0 01-1.652.021 33.582 33.582 0 01-6.015-.501q-3.274-.597-5.813-1.906A14.858 14.858 0 01742.2 66.4a17.761 17.761 0 01-3.058-5.417Q737.1 55.443 737.1 46.9a47.819 47.819 0 01.947-9.985q3.127-14.579 16.579-16.592A30.92 30.92 0 01759.2 20a30.172 30.172 0 018.759 1.16q9.628 2.924 12.148 13.217A34.664 34.664 0 01781 42.6l-1 9.3h-29.4a14.509 14.509 0 00.246 2.447q.533 2.746 2.204 4.203a7.636 7.636 0 002.758 1.505q1.723.545 3.992.545a246.806 246.806 0 008.279-.131q3.888-.131 7.343-.392A144.617 144.617 0 00776.4 60zm1025.4 0l2.8-.3.2 9.9a108.865 108.865 0 01-9.641 1.914q-5.002.748-9.507.865a63.743 63.743 0 01-1.652.021 33.582 33.582 0 01-6.015-.501q-3.274-.597-5.813-1.906a14.858 14.858 0 01-4.572-3.593 17.761 17.761 0 01-3.058-5.417q-2.042-5.54-2.042-14.083a47.819 47.819 0 01.947-9.985q3.127-14.579 16.579-16.592A30.92 30.92 0 011784.6 20a30.172 30.172 0 018.759 1.16q9.628 2.924 12.148 13.217a34.664 34.664 0 01.893 8.223l-1 9.3H1776a14.509 14.509 0 00.246 2.447q.533 2.746 2.204 4.203a7.636 7.636 0 002.758 1.505q1.723.545 3.992.545a246.806 246.806 0 008.279-.131q3.888-.131 7.343-.392a144.617 144.617 0 00.978-.077zm300 0l2.8-.3.2 9.9a108.865 108.865 0 01-9.641 1.914q-5.002.748-9.507.865a63.743 63.743 0 01-1.652.021 33.582 33.582 0 01-6.015-.501q-3.274-.597-5.813-1.906a14.858 14.858 0 01-4.572-3.593 17.761 17.761 0 01-3.058-5.417q-2.042-5.54-2.042-14.083a47.819 47.819 0 01.947-9.985q3.127-14.579 16.579-16.592A30.92 30.92 0 012084.6 20a30.172 30.172 0 018.759 1.16q9.628 2.924 12.148 13.217a34.664 34.664 0 01.893 8.223l-1 9.3H2076a14.509 14.509 0 00.246 2.447q.533 2.746 2.204 4.203a7.636 7.636 0 002.758 1.505q1.723.545 3.992.545a246.806 246.806 0 008.279-.131q3.888-.131 7.343-.392a144.617 144.617 0 00.978-.077zm145.4 0l2.8-.3.2 9.9a108.865 108.865 0 01-9.641 1.914q-5.002.748-9.507.865a63.743 63.743 0 01-1.652.021 33.582 33.582 0 01-6.015-.501q-3.274-.597-5.813-1.906A14.858 14.858 0 012213 66.4a17.761 17.761 0 01-3.058-5.417q-2.042-5.54-2.042-14.083a47.819 47.819 0 01.947-9.985q3.127-14.579 16.579-16.592A30.92 30.92 0 012230 20a30.172 30.172 0 018.759 1.16q9.628 2.924 12.148 13.217a34.664 34.664 0 01.893 8.223l-1 9.3h-29.4a14.509 14.509 0 00.246 2.447q.533 2.746 2.204 4.203a7.636 7.636 0 002.758 1.505q1.723.545 3.992.545a246.806 246.806 0 008.279-.131q3.888-.131 7.343-.392a144.617 144.617 0 00.978-.077zM657.9 21.2v11.4h-12.3v20.5q0 2.976.148 4.23a9.033 9.033 0 00.002.02q.15 1.25 1.1 2.15.95.9 2.95.9l7.6-.2.6 10.7a98.869 98.869 0 01-3.516.726q-4.168.774-6.684.774-7.832 0-11.347-3.067a8.062 8.062 0 01-.953-.983 10.947 10.947 0 01-1.705-3.103Q632.2 60.979 632.2 53.4V32.6h-5.9V21.2h5.9V7.3h13.4v13.9h12.3zm311.7 0v11.4h-12.3v20.5q0 2.976.148 4.23a9.033 9.033 0 00.002.02q.15 1.25 1.1 2.15.95.9 2.95.9l7.6-.2.6 10.7a98.869 98.869 0 01-3.516.726q-4.168.774-6.684.774-7.832 0-11.347-3.067a8.062 8.062 0 01-.953-.983 10.947 10.947 0 01-1.705-3.103Q943.9 60.979 943.9 53.4V32.6H938V21.2h5.9V7.3h13.4v13.9h12.3zm186.8 0v11.4h-12.3v20.5q0 2.976.148 4.23a9.033 9.033 0 00.002.02q.15 1.25 1.1 2.15.95.9 2.95.9l7.6-.2.6 10.7a98.869 98.869 0 01-3.516.726q-4.168.774-6.684.774-7.832 0-11.347-3.067a8.062 8.062 0 01-.953-.983 10.947 10.947 0 01-1.705-3.103q-1.595-4.268-1.595-11.847V32.6h-5.9V21.2h5.9V7.3h13.4v13.9h12.3zm559.1 0v11.4h-12.3v20.5q0 2.976.148 4.23a9.033 9.033 0 00.002.02q.15 1.25 1.1 2.15.95.9 2.95.9l7.6-.2.6 10.7a98.869 98.869 0 01-3.516.726q-4.168.774-6.684.774-7.832 0-11.347-3.067a8.062 8.062 0 01-.953-.983 10.947 10.947 0 01-1.705-3.103q-1.595-4.268-1.595-11.847V32.6h-5.9V21.2h5.9V7.3h13.4v13.9h12.3zm-1572.7.4l2.7.6-.4 10.6q-7.757-.785-11.561-.799A37.181 37.181 0 00133.4 32a25.1 25.1 0 00-3.069.173q-3.251.403-5.028 1.74a5.391 5.391 0 00-1.053 1.037q-1.786 2.342-2.154 7.99A48.709 48.709 0 00122 46.1a46.989 46.989 0 00.136 3.724q.288 3.6 1.182 5.811a7.811 7.811 0 00.932 1.715 6.081 6.081 0 002.355 1.859q2.077.982 5.413 1.155a28.688 28.688 0 001.482.036l11.6-.8.4 10.7a181.827 181.827 0 01-5.031.919Q133.4 72.4 129.2 72.4a31.145 31.145 0 01-5.749-.494q-3.253-.612-5.748-1.981a14.233 14.233 0 01-4.453-3.775 18.871 18.871 0 01-2.811-5.327Q108.4 55.049 108.4 46.1a60.351 60.351 0 01.374-6.974q.993-8.507 4.626-12.976a15.414 15.414 0 017.163-4.843q2.612-.893 5.829-1.176A35.539 35.539 0 01129.5 20a44.569 44.569 0 013.918.189q4.066.361 9.382 1.411zm1162.8 0l2.7.6-.4 10.6q-7.757-.785-11.561-.799a37.181 37.181 0 00-.139-.001 25.1 25.1 0 00-3.069.173q-3.251.403-5.028 1.74a5.391 5.391 0 00-1.053 1.037q-1.786 2.342-2.154 7.99a48.709 48.709 0 00-.096 3.16 46.989 46.989 0 00.136 3.724q.288 3.6 1.182 5.811a7.811 7.811 0 00.932 1.715 6.081 6.081 0 002.355 1.859q2.077.982 5.413 1.155a28.688 28.688 0 001.482.036l11.6-.8.4 10.7a181.827 181.827 0 01-5.031.919Q1296.2 72.4 1292 72.4a31.145 31.145 0 01-5.749-.494q-3.253-.612-5.748-1.981a14.233 14.233 0 01-4.453-3.775 18.871 18.871 0 01-2.811-5.327q-2.039-5.774-2.039-14.723a60.351 60.351 0 01.374-6.974q.993-8.507 4.626-12.976a15.414 15.414 0 017.163-4.843q2.612-.893 5.829-1.176A35.539 35.539 0 011292.3 20a44.569 44.569 0 013.918.189q4.066.361 9.382 1.411zM606.4 71.2H593v-50h13.3v5.3a62.358 62.358 0 017.197-3.705q4.528-1.951 8.803-2.795v13.5a205.545 205.545 0 00-5.752 1.289q-2.827.679-5.303 1.373A107.307 107.307 0 00608.4 37l-2 .7v33.5zm949.1 0h-13.4v-50h13.3v5.3a62.358 62.358 0 017.197-3.705q4.528-1.951 8.803-2.795v13.5a205.545 205.545 0 00-5.752 1.289q-2.827.679-5.303 1.373a107.307 107.307 0 00-2.845.838l-2 .7v33.5zm-387.7-44.35q5.3-6.85 17.7-6.85a35.291 35.291 0 016.413.542q7.478 1.385 11.287 6.308a22.981 22.981 0 013.715 7.348q.991 3.201 1.362 7.05a50.557 50.557 0 01.223 4.852 43.761 43.761 0 01-1.023 9.926q-3.165 13.537-16.117 15.883a32.903 32.903 0 01-5.86.491q-22.08 0-22.963-24.239a56.637 56.637 0 01-.037-2.061 46.689 46.689 0 01.557-7.457q.635-3.917 1.994-7.077a21.624 21.624 0 012.749-4.716zm230.4 0q5.3-6.85 17.7-6.85a35.291 35.291 0 016.413.542q7.478 1.385 11.287 6.308a22.981 22.981 0 013.715 7.348q.991 3.201 1.362 7.05a50.557 50.557 0 01.223 4.852 43.761 43.761 0 01-1.023 9.926q-3.165 13.537-16.117 15.883a32.903 32.903 0 01-5.86.491q-22.08 0-22.963-24.239a56.637 56.637 0 01-.037-2.061 46.689 46.689 0 01.557-7.457q.635-3.917 1.994-7.077a21.624 21.624 0 012.749-4.716zm183.8 0q5.3-6.85 17.7-6.85a35.291 35.291 0 016.413.542q7.478 1.385 11.287 6.308a22.981 22.981 0 013.715 7.348q.991 3.201 1.362 7.05a50.557 50.557 0 01.223 4.852 43.761 43.761 0 01-1.023 9.926q-3.165 13.537-16.117 15.883a32.903 32.903 0 01-5.86.491q-22.08 0-22.963-24.239a56.637 56.637 0 01-.037-2.061 46.689 46.689 0 01.557-7.457q.635-3.917 1.994-7.077A21.624 21.624 0 011582 26.85zM680 71.2h-13.4v-50H680v50zm249.5 0h-13.4v-50h13.4v50zm1067.8 0h-13.4v-50h13.4v50zm-244.1-20.5h-29.6V38.5h29.6v12.2zM340 59.2l1.4-.3V32.6q-5.5-1-9.8-1a6.672 6.672 0 00-6.379 4.185q-1.464 3.043-1.683 8.3A46.109 46.109 0 00323.5 46q0 6.113 1.106 9.462a9.91 9.91 0 00.694 1.638 5.953 5.953 0 004.247 3.143 8.741 8.741 0 001.703.157 32.13 32.13 0 005.363-.468A39.606 39.606 0 00340 59.2zm1559 0l1.4-.3V32.6q-5.5-1-9.8-1a6.672 6.672 0 00-6.379 4.185q-1.464 3.043-1.683 8.3A46.109 46.109 0 001882.5 46q0 6.113 1.106 9.462a9.91 9.91 0 00.694 1.638 5.953 5.953 0 004.247 3.143 8.741 8.741 0 001.703.157 32.13 32.13 0 005.363-.468A39.606 39.606 0 001899 59.2zM502.2 33.5l-1.2.5v26.2a92.237 92.237 0 002.646.317q2.641.274 4.529.283a26.676 26.676 0 00.125 0q3.387 0 5.53-1.159a6.425 6.425 0 002.42-2.241q1.766-2.793 2.081-8.825a53.266 53.266 0 00.069-2.775q0-9.444-4.075-12.425A7.621 7.621 0 00509.7 32a19.642 19.642 0 00-5.842.916 23.377 23.377 0 00-1.658.584zm675.95 23.9a6.749 6.749 0 004.355 3.249q1.213.318 2.687.348a15.191 15.191 0 00.308.003 12.121 12.121 0 002.724-.284q1.749-.404 2.981-1.38a6.612 6.612 0 001.645-1.936 12.181 12.181 0 001.081-2.65q.794-2.75.937-6.8a52.305 52.305 0 00.032-1.85 46.214 46.214 0 00-.145-3.794q-.312-3.773-1.297-6.167a9.914 9.914 0 00-.608-1.239q-2.05-3.5-7.35-3.5a12.453 12.453 0 00-2.724.277q-3.153.708-4.626 3.223a11.569 11.569 0 00-1.081 2.598q-.753 2.572-.921 6.343a50.915 50.915 0 00-.048 2.259 46.014 46.014 0 00.158 3.956q.332 3.84 1.367 6.276a10.262 10.262 0 00.525 1.068zm230.4 0a6.749 6.749 0 004.355 3.249q1.213.318 2.687.348a15.191 15.191 0 00.308.003 12.121 12.121 0 002.724-.284q1.749-.404 2.981-1.38a6.612 6.612 0 001.645-1.936 12.181 12.181 0 001.081-2.65q.794-2.75.937-6.8a52.305 52.305 0 00.032-1.85 46.214 46.214 0 00-.145-3.794q-.312-3.773-1.297-6.167a9.914 9.914 0 00-.608-1.239q-2.05-3.5-7.35-3.5a12.453 12.453 0 00-2.724.277q-3.153.708-4.626 3.223a11.569 11.569 0 00-1.081 2.598q-.753 2.572-.921 6.343a50.915 50.915 0 00-.048 2.259 46.014 46.014 0 00.158 3.956q.332 3.84 1.367 6.276a10.262 10.262 0 00.525 1.068zm183.8 0a6.749 6.749 0 004.355 3.249q1.213.318 2.687.348a15.191 15.191 0 00.308.003 12.121 12.121 0 002.724-.284q1.749-.404 2.981-1.38a6.612 6.612 0 001.645-1.936 12.181 12.181 0 001.081-2.65q.794-2.75.937-6.8a52.305 52.305 0 00.032-1.85 46.214 46.214 0 00-.145-3.794q-.312-3.773-1.297-6.167a9.914 9.914 0 00-.608-1.239q-2.05-3.5-7.35-3.5a12.453 12.453 0 00-2.724.277q-3.153.708-4.626 3.223a11.569 11.569 0 00-1.081 2.598q-.753 2.572-.921 6.343a50.915 50.915 0 00-.048 2.259 46.014 46.014 0 00.158 3.956q.332 3.84 1.367 6.276a10.262 10.262 0 00.525 1.068zM797.2 83.5h-10.8l5-26h14.8l-9 26zM26.4 42.8H13.8v16.6h12.6a17.991 17.991 0 002.345-.142q2.711-.357 4.25-1.612a5.468 5.468 0 00.055-.046 5.046 5.046 0 001.372-1.91q.701-1.623.77-4.125A20.256 20.256 0 0035.2 51a10.93 10.93 0 00-.467-3.344Q33.172 42.8 26.4 42.8zM26 15H13.8v16.2h12.3q6.221 0 7.48-5.152a12.444 12.444 0 00.32-2.948q0-8.1-7.9-8.1zm654-.2h-13.4V1.2H680v13.6zm249.5 0h-13.4V1.2h13.4v13.6zm1067.8 0h-13.4V1.2h13.4v13.6zM216.9 41.7h17.3a29.941 29.941 0 00-.119-2.771q-.257-2.76-1.074-4.445a5.851 5.851 0 00-.707-1.134 5.563 5.563 0 00-2.295-1.642q-.928-.376-2.1-.552A15.196 15.196 0 00225.65 31a14.442 14.442 0 00-2.388.184q-1.256.211-2.233.665a5.646 5.646 0 00-2.079 1.601Q217 35.9 216.9 41.7zm183.2 0h17.3a29.941 29.941 0 00-.119-2.771q-.257-2.76-1.074-4.445a5.851 5.851 0 00-.707-1.134 5.563 5.563 0 00-2.295-1.642q-.928-.376-2.1-.552A15.196 15.196 0 00408.85 31a14.442 14.442 0 00-2.388.184q-1.256.211-2.233.665a5.646 5.646 0 00-2.079 1.601q-1.95 2.45-2.05 8.25zm152.8 0h17.3a29.941 29.941 0 00-.119-2.771q-.257-2.76-1.074-4.445a5.851 5.851 0 00-.707-1.134 5.563 5.563 0 00-2.295-1.642q-.928-.376-2.1-.552A15.196 15.196 0 00561.65 31a14.442 14.442 0 00-2.388.184q-1.256.211-2.233.665a5.646 5.646 0 00-2.079 1.601Q553 35.9 552.9 41.7zm197.6 0h17.3a29.941 29.941 0 00-.119-2.771q-.257-2.76-1.074-4.445a5.851 5.851 0 00-.707-1.134 5.563 5.563 0 00-2.295-1.642q-.928-.376-2.1-.552A15.196 15.196 0 00759.25 31a14.442 14.442 0 00-2.388.184q-1.256.211-2.233.665a5.646 5.646 0 00-2.079 1.601q-1.95 2.45-2.05 8.25zm1025.4 0h17.3a29.941 29.941 0 00-.119-2.771q-.257-2.76-1.074-4.445a5.851 5.851 0 00-.707-1.134 5.563 5.563 0 00-2.295-1.642q-.928-.376-2.1-.552a15.196 15.196 0 00-2.255-.156 14.442 14.442 0 00-2.388.184q-1.256.211-2.233.665a5.646 5.646 0 00-2.079 1.601q-1.95 2.45-2.05 8.25zm300 0h17.3a29.941 29.941 0 00-.119-2.771q-.257-2.76-1.074-4.445a5.851 5.851 0 00-.707-1.134 5.563 5.563 0 00-2.295-1.642q-.928-.376-2.1-.552a15.196 15.196 0 00-2.255-.156 14.442 14.442 0 00-2.388.184q-1.256.211-2.233.665a5.646 5.646 0 00-2.079 1.601q-1.95 2.45-2.05 8.25zm145.4 0h17.3a29.941 29.941 0 00-.119-2.771q-.257-2.76-1.074-4.445a5.851 5.851 0 00-.707-1.134 5.563 5.563 0 00-2.295-1.642q-.928-.376-2.1-.552a15.196 15.196 0 00-2.255-.156 14.442 14.442 0 00-2.388.184q-1.256.211-2.233.665a5.646 5.646 0 00-2.079 1.601q-1.95 2.45-2.05 8.25zM84.6 49.2l-9.1.8a8.441 8.441 0 00-2.317.509q-2.584 1.008-3.134 3.831A8.688 8.688 0 0069.9 56a8.99 8.99 0 00.218 2.076q.668 2.805 3.384 3.313a7.078 7.078 0 001.298.111 28.063 28.063 0 004.235-.338A38.193 38.193 0 0083.1 60.3l1.5-.4V49.2zm995.9 0l-9.1.8a8.441 8.441 0 00-2.317.509q-2.584 1.008-3.134 3.831a8.688 8.688 0 00-.149 1.66 8.99 8.99 0 00.218 2.076q.668 2.805 3.384 3.313a7.078 7.078 0 001.298.111 28.063 28.063 0 004.235-.338A38.193 38.193 0 001079 60.3l1.5-.4V49.2z" fontSize="12" vectorEffect="non-scaling-stroke"></path>
</svg>