<svg xmlns="http://www.w3.org/2000/svg" version="1.1" width="2000" height="1247" viewBox="0 0 2000 1247">
    <g transform="matrix(1,0,0,1,-1.2121212121212466,0.504858299595071)">
        <svg viewBox="0 0 396 247" data-background-color="#ffffff" preserveAspectRatio="xMidYMid meet" height="1247" width="2000"
            xmlns="http://www.w3.org/2000/svg"
    >
            <g id="tight-bounds" transform="matrix(1,0,0,1,0.2400000000000091,-0.09999999999999432)">
                <svg viewBox="0 0 395.52 247.2" height="247.2" width="395.52">
                    <g>
                        <svg></svg>
                    </g>
                    <g>
                        <svg viewBox="0 0 395.52 247.2" height="247.2" width="395.52">
                            <mask id="3586d16f-1fc9-4ee7-a28d-f92d4b59260c">
                                <rect width="395.52" height="247.2" fill="white"></rect>
                                <g transform="matrix(1,0,0,1,122.05499999999999,37.08)" id="clone">
                                    <svg viewBox="0 0 151.41 173.04" height="173.04" width="151.41">
                                        <g>
                                            <svg viewBox="0 0 151.41 173.04" height="173.04" width="151.41">
                                                <g>
                                                    <svg viewBox="0 0 151.41 173.04" height="173.04" width="151.41">
                                                        <g>
                                                            <svg viewBox="0 0 151.41 173.04" height="173.04" width="151.41">
                                                                <g id="SvgjsG7062">
                                                                    <svg viewBox="0 0 151.41 173.04" height="173.04" width="151.41" id="SvgjsSvg7061">
                                                                        <g>
                                                                            <svg viewBox="0 0 151.41 173.04" height="173.04" width="151.41">
                                                                                <g transform="matrix(1,0,0,1,0,0)">
                                                                                    <svg width="151.41" viewBox="-1.25 -39.5 37.75 43" height="173.04" data-palette-color="#030303">
                                                                                        <path d="M21.7 0.5L13.6 0.5Q12.35 0.5 11.83-0.05 11.3-0.6 11.3-1.8L11.3-1.8 11.3-8.05 3.75-18.15Q2.55-19.75 2.15-20.95 1.75-22.15 1.75-24.6L1.75-24.6 1.75-34.2Q1.75-35.4 2.3-35.95 2.85-36.5 4.05-36.5L4.05-36.5 11.75-36.5Q12.95-36.5 13.5-35.95 14.05-35.4 14.05-34.2L14.05-34.2 14.05-26Q14.05-25.55 14.1-25.1 14.15-24.65 14.4-24.15L14.4-24.15 16.75-20.55Q16.9-20.25 17.07-20.1 17.25-19.95 17.5-19.95L17.5-19.95 18-19.95Q18.25-19.95 18.43-20.1 18.6-20.25 18.8-20.55L18.8-20.55 21.1-24.15Q21.35-24.65 21.4-25.1 21.45-25.55 21.45-26L21.45-26 21.45-34.2Q21.45-35.4 22-35.95 22.55-36.5 23.75-36.5L23.75-36.5 31.2-36.5Q32.4-36.5 32.95-35.95 33.5-35.4 33.5-34.2L33.5-34.2 33.5-24.6Q33.5-22.15 33.1-20.95 32.7-19.75 31.5-18.15L31.5-18.15 24-8 24-1.8Q24-0.6 23.45-0.05 22.9 0.5 21.7 0.5L21.7 0.5ZM13.6 0L21.7 0Q22.65 0 23.08-0.43 23.5-0.85 23.5-1.8L23.5-1.8 23.5-8.15 31.1-18.45Q32.2-20 32.6-21.15 33-22.3 33-24.6L33-24.6 33-34.2Q33-35.15 32.58-35.58 32.15-36 31.2-36L31.2-36 23.75-36Q22.8-36 22.38-35.58 21.95-35.15 21.95-34.2L21.95-34.2 21.95-26Q21.95-25.5 21.9-24.95 21.85-24.4 21.5-23.9L21.5-23.9 19.2-20.3Q18.95-19.85 18.68-19.65 18.4-19.45 18-19.45L18-19.45 17.5-19.45Q17.1-19.45 16.82-19.65 16.55-19.85 16.3-20.3L16.3-20.3 14-23.9Q13.65-24.4 13.6-24.95 13.55-25.5 13.55-26L13.55-26 13.55-34.2Q13.55-35.15 13.13-35.58 12.7-36 11.75-36L11.75-36 4.05-36Q3.1-36 2.68-35.58 2.25-35.15 2.25-34.2L2.25-34.2 2.25-24.6Q2.25-22.3 2.63-21.15 3-20 4.15-18.45L4.15-18.45 11.8-8.2 11.8-1.8Q11.8-0.85 12.23-0.43 12.65 0 13.6 0L13.6 0ZM18.25-13.05L18.25-13.05 17.9-13.05 17.9-4.5 17.4-4.5 17.4-13.05 16.9-13.05Q15.8-13.05 14.93-13.55 14.05-14.05 13.25-15.15L13.25-15.15 8.4-21.9Q7.85-22.65 7.75-23.65 7.65-24.65 7.65-25.75L7.65-25.75 7.65-31.5 8.15-31.5 8.15-25.75Q8.15-24.7 8.25-23.78 8.35-22.85 8.85-22.1L8.85-22.1 13.7-15.35Q14.35-14.35 15.2-13.95 16.05-13.55 16.9-13.55L16.9-13.55 18.25-13.55Q19.2-13.55 19.98-13.98 20.75-14.4 21.5-15.35L21.5-15.35 26.5-22.1Q27-22.75 27.1-23.73 27.2-24.7 27.2-25.75L27.2-25.75 27.2-31.5 27.7-31.5 27.7-25.75Q27.7-24.65 27.63-23.68 27.55-22.7 26.95-21.9L26.95-21.9 21.95-15.15Q21.15-14.05 20.28-13.55 19.4-13.05 18.25-13.05Z" opacity="1" transform="matrix(1,0,0,1,0,0)" fill="black" class="wordmark-text-0" id="SvgjsPath7060" stroke-width="5" stroke="black" stroke-linejoin="round">
                                                                                        </path>
                                                                                    </svg>
                                                                                </g>
                                                                            </svg>
                                                                        </g>
                                                                    </svg>
                                                                </g>
                                                            </svg>
                                                        </g>
                                                        <g></g>
                                                    </svg>
                                                </g>
                                            </svg>
                                        </g>
                                    </svg>
                                </g>
                            </mask>
                            <g mask="url(#3586d16f-1fc9-4ee7-a28d-f92d4b59260c)">
                                <g>
                                    <path d="M217.111 211.453h-38.465c-3.957 0-6.759-0.871-8.405-2.612-1.678-1.741-2.517-4.511-2.517-8.31v0-29.68l-35.854-47.963c-3.799-5.065-6.332-9.498-7.598-13.297-1.266-3.799-1.9-9.577-1.899-17.333v0-45.589c0-3.799 0.871-6.569 2.611-8.31 1.741-1.741 4.511-2.612 8.311-2.612v0h36.566c3.799 0 6.569 0.871 8.31 2.612 1.741 1.741 2.612 4.511 2.612 8.31v0 38.94c0 1.425 0.079 2.849 0.237 4.274 0.158 1.425 0.633 2.928 1.425 4.512v0l11.16 17.096c0.475 0.95 0.981 1.662 1.519 2.136 0.57 0.475 1.251 0.712 2.042 0.713v0h2.375c0.791 0 1.472-0.237 2.042-0.713 0.538-0.475 1.124-1.187 1.757-2.136v0l10.922-17.096c0.791-1.583 1.266-3.087 1.425-4.512 0.158-1.425 0.237-2.849 0.237-4.274v0-38.94c0-3.799 0.871-6.569 2.612-8.31 1.741-1.741 4.511-2.612 8.311-2.612v0h35.378c3.799 0 6.569 0.871 8.311 2.612 1.741 1.741 2.612 4.511 2.611 8.31v0 45.589c0 7.756-0.633 13.534-1.899 17.333-1.266 3.799-3.799 8.231-7.598 13.297v0l-35.616 48.2v29.443c0 3.799-0.871 6.569-2.612 8.31-1.741 1.741-4.511 2.612-8.311 2.612zM178.646 209.079h38.465c3.008 0 5.192-0.681 6.554-2.042 1.33-1.33 1.994-3.498 1.994-6.506v0-30.155l36.091-48.913c3.482-4.907 5.857-9.181 7.124-12.822 1.266-3.641 1.9-9.102 1.899-16.383v0-45.589c0-3.008-0.665-5.192-1.994-6.553-1.361-1.33-3.546-1.994-6.554-1.995v0h-35.378c-3.008 0-5.176 0.665-6.506 1.995-1.361 1.361-2.042 3.546-2.042 6.553v0 38.94c0 1.583-0.079 3.245-0.238 4.987-0.158 1.741-0.791 3.403-1.899 4.986v0l-10.923 17.096c-0.791 1.425-1.615 2.454-2.469 3.086-0.886 0.633-1.963 0.95-3.229 0.95v0h-2.375c-1.266 0-2.343-0.317-3.229-0.95-0.855-0.633-1.678-1.662-2.469-3.086v0l-10.922-17.096c-1.108-1.583-1.741-3.245-1.9-4.986-0.158-1.741-0.237-3.403-0.237-4.987v0-38.94c0-3.008-0.665-5.192-1.995-6.553-1.361-1.33-3.546-1.994-6.553-1.995v0h-36.566c-3.008 0-5.176 0.665-6.506 1.995-1.361 1.361-2.042 3.546-2.042 6.553v0 45.589c0 7.282 0.602 12.743 1.804 16.383 1.171 3.641 3.577 7.915 7.219 12.822v0l36.328 48.675v30.393c0 3.008 0.681 5.176 2.042 6.506 1.33 1.361 3.498 2.042 6.506 2.042zM200.728 147.107v0h-1.662v40.602h-2.374v-40.602h-2.375c-3.482 0-6.601-0.791-9.355-2.375-2.786-1.583-5.445-4.116-7.978-7.598v0l-23.032-32.054c-1.741-2.374-2.77-5.145-3.087-8.311-0.317-3.166-0.475-6.49-0.474-9.972v0-27.306h2.374v27.306c0 3.324 0.158 6.443 0.475 9.355 0.317 2.944 1.266 5.604 2.849 7.978v0l23.032 32.054c2.058 3.166 4.432 5.382 7.123 6.649 2.691 1.266 5.382 1.9 8.073 1.899v0h6.411c3.008 0 5.746-0.681 8.215-2.042 2.438-1.33 4.844-3.498 7.219-6.506v0l23.744-32.054c1.583-2.058 2.533-4.638 2.849-7.741 0.317-3.071 0.475-6.268 0.475-9.592v0-27.306h2.374v27.306c0 3.482-0.111 6.759-0.332 9.83-0.253 3.103-1.33 5.92-3.229 8.453v0l-23.744 32.054c-2.533 3.482-5.176 6.015-7.931 7.598-2.786 1.583-5.999 2.374-9.64 2.375z" fill="#030303" fill-rule="nonzero" stroke="none" stroke-width="1" stroke-linecap="butt" stroke-linejoin="miter" stroke-miterlimit="10" stroke-dasharray="" stroke-dashoffset="0" font-family="none" font-weight="none" font-size="none" text-anchor="none" style="mix-blend-mode: normal" data-fill-palette-color="tertiary"></path>
                                </g>
                            </g>
                            <g transform="matrix(1,0,0,1,122.05499999999999,37.08)">
                                <svg viewBox="0 0 151.41 173.04" height="173.04" width="151.41">
                                    <g>
                                        <svg viewBox="0 0 151.41 173.04" height="173.04" width="151.41">
                                            <g>
                                                <svg viewBox="0 0 151.41 173.04" height="173.04" width="151.41">
                                                    <g>
                                                        <svg viewBox="0 0 151.41 173.04" height="173.04" width="151.41">
                                                            <g id="textblocktransform">
                                                                <svg viewBox="0 0 151.41 173.04" height="173.04" width="151.41" id="textblock">
                                                                    <g>
                                                                        <svg viewBox="0 0 151.41 173.04" height="173.04" width="151.41">
                                                                            <g transform="matrix(1,0,0,1,0,0)">
                                                                                <svg width="151.41" viewBox="-1.25 -39.5 37.75 43" height="173.04" data-palette-color="#030303">
                                                                                    <path d="M21.7 0.5L13.6 0.5Q12.35 0.5 11.83-0.05 11.3-0.6 11.3-1.8L11.3-1.8 11.3-8.05 3.75-18.15Q2.55-19.75 2.15-20.95 1.75-22.15 1.75-24.6L1.75-24.6 1.75-34.2Q1.75-35.4 2.3-35.95 2.85-36.5 4.05-36.5L4.05-36.5 11.75-36.5Q12.95-36.5 13.5-35.95 14.05-35.4 14.05-34.2L14.05-34.2 14.05-26Q14.05-25.55 14.1-25.1 14.15-24.65 14.4-24.15L14.4-24.15 16.75-20.55Q16.9-20.25 17.07-20.1 17.25-19.95 17.5-19.95L17.5-19.95 18-19.95Q18.25-19.95 18.43-20.1 18.6-20.25 18.8-20.55L18.8-20.55 21.1-24.15Q21.35-24.65 21.4-25.1 21.45-25.55 21.45-26L21.45-26 21.45-34.2Q21.45-35.4 22-35.95 22.55-36.5 23.75-36.5L23.75-36.5 31.2-36.5Q32.4-36.5 32.95-35.95 33.5-35.4 33.5-34.2L33.5-34.2 33.5-24.6Q33.5-22.15 33.1-20.95 32.7-19.75 31.5-18.15L31.5-18.15 24-8 24-1.8Q24-0.6 23.45-0.05 22.9 0.5 21.7 0.5L21.7 0.5ZM13.6 0L21.7 0Q22.65 0 23.08-0.43 23.5-0.85 23.5-1.8L23.5-1.8 23.5-8.15 31.1-18.45Q32.2-20 32.6-21.15 33-22.3 33-24.6L33-24.6 33-34.2Q33-35.15 32.58-35.58 32.15-36 31.2-36L31.2-36 23.75-36Q22.8-36 22.38-35.58 21.95-35.15 21.95-34.2L21.95-34.2 21.95-26Q21.95-25.5 21.9-24.95 21.85-24.4 21.5-23.9L21.5-23.9 19.2-20.3Q18.95-19.85 18.68-19.65 18.4-19.45 18-19.45L18-19.45 17.5-19.45Q17.1-19.45 16.82-19.65 16.55-19.85 16.3-20.3L16.3-20.3 14-23.9Q13.65-24.4 13.6-24.95 13.55-25.5 13.55-26L13.55-26 13.55-34.2Q13.55-35.15 13.13-35.58 12.7-36 11.75-36L11.75-36 4.05-36Q3.1-36 2.68-35.58 2.25-35.15 2.25-34.2L2.25-34.2 2.25-24.6Q2.25-22.3 2.63-21.15 3-20 4.15-18.45L4.15-18.45 11.8-8.2 11.8-1.8Q11.8-0.85 12.23-0.43 12.65 0 13.6 0L13.6 0ZM18.25-13.05L18.25-13.05 17.9-13.05 17.9-4.5 17.4-4.5 17.4-13.05 16.9-13.05Q15.8-13.05 14.93-13.55 14.05-14.05 13.25-15.15L13.25-15.15 8.4-21.9Q7.85-22.65 7.75-23.65 7.65-24.65 7.65-25.75L7.65-25.75 7.65-31.5 8.15-31.5 8.15-25.75Q8.15-24.7 8.25-23.78 8.35-22.85 8.85-22.1L8.85-22.1 13.7-15.35Q14.35-14.35 15.2-13.95 16.05-13.55 16.9-13.55L16.9-13.55 18.25-13.55Q19.2-13.55 19.98-13.98 20.75-14.4 21.5-15.35L21.5-15.35 26.5-22.1Q27-22.75 27.1-23.73 27.2-24.7 27.2-25.75L27.2-25.75 27.2-31.5 27.7-31.5 27.7-25.75Q27.7-24.65 27.63-23.68 27.55-22.7 26.95-21.9L26.95-21.9 21.95-15.15Q21.15-14.05 20.28-13.55 19.4-13.05 18.25-13.05Z" opacity="1" transform="matrix(1,0,0,1,0,0)" fill="#030303" class="wordmark-text-0" data-fill-palette-color="primary" id="text-0"></path>
                                                                                </svg>
                                                                            </g>
                                                                        </svg>
                                                                    </g>
                                                                </svg>
                                                            </g>
                                                        </svg>
                                                    </g>
                                                    <g></g>
                                                </svg>
                                            </g>
                                        </svg>
                                    </g>
                                </svg>
                            </g>
                        </svg>
                    </g>
                    <defs></defs>
                </svg>
                <rect width="395.52" height="247.2" fill="none" stroke="none" visibility="hidden"></rect>
            </g>
        </svg>
    </g>
</svg>