<svg
      xmlns="http://www.w3.org/2000/svg"
      width="1582.86"
      height="57.06"
      viewBox="0 0 1582.86 57.06"
    >
      <path
        fill="#000"
        fillRule="evenodd"
        stroke="#000"
        strokeLinecap="round"
        strokeWidth="0.945"
        d="M608.76 45.42h-5.52l-11.82-31.8h5.46l10.5 28.8h-2.58l10.92-28.8h4.86l10.68 28.8h-2.52l10.74-28.8h5.16l-11.88 31.8h-5.52l-10.02-26.28h1.68l-10.14 26.28zM180.3 31.44h-27.06V27.3h24.06l-2.34 1.44a13.509 13.509 0 00.003-.265q0-1.676-.422-3.15a9.855 9.855 0 00-.841-2.045q-1.32-2.4-3.63-3.75a9.844 9.844 0 00-3.708-1.243 12.575 12.575 0 00-1.662-.107 11.371 11.371 0 00-3.146.421 9.747 9.747 0 00-2.194.929q-2.34 1.35-3.66 3.78a10.903 10.903 0 00-1.238 4.033 13.628 13.628 0 00-.082 1.517v.96a11.744 11.744 0 00.485 3.425 10.253 10.253 0 00.985 2.245q1.47 2.49 4.11 3.87 2.64 1.38 6.06 1.38a14.342 14.342 0 003.13-.329 12.024 12.024 0 002-.631q2.31-.96 4.05-2.88l3.18 3.72q-2.16 2.52-5.37 3.84a17.552 17.552 0 01-4.768 1.191 21.819 21.819 0 01-2.402.129 20.985 20.985 0 01-4.788-.524 16.692 16.692 0 01-4.182-1.576q-3.87-2.1-6-5.76a15.741 15.741 0 01-2.028-6.373 19.64 19.64 0 01-.102-2.027 18.48 18.48 0 01.584-4.731 15.402 15.402 0 011.486-3.669q2.07-3.66 5.7-5.73a15.856 15.856 0 016.788-2.019 19.188 19.188 0 011.402-.051 17.774 17.774 0 014.541.559 14.722 14.722 0 013.619 1.481q3.54 2.04 5.55 5.73a16.316 16.316 0 011.772 5.373 21.306 21.306 0 01.238 3.237 10.358 10.358 0 01-.004.287l-.01.265a18.248 18.248 0 01-.016.288 12.245 12.245 0 01-.049.577 10.138 10.138 0 01-.041.323zm134.64 0h-27.06V27.3h24.06l-2.34 1.44a13.509 13.509 0 00.003-.265q0-1.676-.422-3.15a9.855 9.855 0 00-.841-2.045q-1.32-2.4-3.63-3.75a9.844 9.844 0 00-3.708-1.243 12.575 12.575 0 00-1.662-.107 11.371 11.371 0 00-3.146.421 9.747 9.747 0 00-2.194.929q-2.34 1.35-3.66 3.78a10.903 10.903 0 00-1.238 4.033 13.628 13.628 0 00-.082 1.517v.96a11.744 11.744 0 00.485 3.425 10.253 10.253 0 00.985 2.245q1.47 2.49 4.11 3.87 2.64 1.38 6.06 1.38a14.342 14.342 0 003.13-.329 12.024 12.024 0 002-.631q2.31-.96 4.05-2.88l3.18 3.72q-2.16 2.52-5.37 3.84a17.552 17.552 0 01-4.768 1.191 21.819 21.819 0 01-2.402.129 20.985 20.985 0 01-4.788-.524 16.692 16.692 0 01-4.182-1.576q-3.87-2.1-6-5.76a15.741 15.741 0 01-2.028-6.373 19.64 19.64 0 01-.102-2.027 18.48 18.48 0 01.584-4.731 15.402 15.402 0 011.486-3.669q2.07-3.66 5.7-5.73a15.856 15.856 0 016.788-2.019 19.188 19.188 0 011.402-.051 17.774 17.774 0 014.541.559 14.722 14.722 0 013.619 1.481q3.54 2.04 5.55 5.73a16.316 16.316 0 011.772 5.373 21.306 21.306 0 01.238 3.237 10.358 10.358 0 01-.004.287l-.01.265a18.248 18.248 0 01-.016.288 12.245 12.245 0 01-.049.577 10.138 10.138 0 01-.041.323zm110.76 0h-27.06V27.3h24.06l-2.34 1.44a13.509 13.509 0 00.003-.265q0-1.676-.422-3.15a9.855 9.855 0 00-.841-2.045q-1.32-2.4-3.63-3.75a9.844 9.844 0 00-3.708-1.243 12.575 12.575 0 00-1.662-.107 11.371 11.371 0 00-3.146.421 9.747 9.747 0 00-2.194.929q-2.34 1.35-3.66 3.78a10.903 10.903 0 00-1.238 4.033 13.628 13.628 0 00-.082 1.517v.96a11.744 11.744 0 00.485 3.425 10.253 10.253 0 00.985 2.245q1.47 2.49 4.11 3.87 2.64 1.38 6.06 1.38a14.342 14.342 0 003.13-.329 12.024 12.024 0 002-.631q2.31-.96 4.05-2.88l3.18 3.72q-2.16 2.52-5.37 3.84a17.552 17.552 0 01-4.768 1.191 21.819 21.819 0 01-2.402.129 20.985 20.985 0 01-4.788-.524 16.692 16.692 0 01-4.182-1.576q-3.87-2.1-6-5.76a15.741 15.741 0 01-2.028-6.373 19.64 19.64 0 01-.102-2.027 18.48 18.48 0 01.584-4.731 15.402 15.402 0 011.486-3.669q2.07-3.66 5.7-5.73a15.856 15.856 0 016.788-2.019 19.188 19.188 0 011.402-.051 17.774 17.774 0 014.541.559 14.722 14.722 0 013.619 1.481q3.54 2.04 5.55 5.73a16.316 16.316 0 011.772 5.373 21.306 21.306 0 01.238 3.237 10.358 10.358 0 01-.004.287l-.01.265a18.248 18.248 0 01-.016.288 12.245 12.245 0 01-.049.577 10.138 10.138 0 01-.041.323zm132.96 0H531.6V27.3h24.06l-2.34 1.44a13.509 13.509 0 00.003-.265q0-1.676-.422-3.15a9.855 9.855 0 00-.841-2.045q-1.32-2.4-3.63-3.75a9.844 9.844 0 00-3.708-1.243 12.575 12.575 0 00-1.662-.107 11.371 11.371 0 00-3.146.421 9.747 9.747 0 00-2.194.929q-2.34 1.35-3.66 3.78a10.903 10.903 0 00-1.238 4.033 13.628 13.628 0 00-.082 1.517v.96a11.744 11.744 0 00.485 3.425 10.253 10.253 0 00.985 2.245q1.47 2.49 4.11 3.87 2.64 1.38 6.06 1.38a14.342 14.342 0 003.13-.329 12.024 12.024 0 002-.631q2.31-.96 4.05-2.88l3.18 3.72q-2.16 2.52-5.37 3.84a17.552 17.552 0 01-4.768 1.191 21.819 21.819 0 01-2.402.129 20.985 20.985 0 01-4.788-.524 16.692 16.692 0 01-4.182-1.576q-3.87-2.1-6-5.76a15.741 15.741 0 01-2.028-6.373 19.64 19.64 0 01-.102-2.027 18.48 18.48 0 01.584-4.731 15.402 15.402 0 011.486-3.669q2.07-3.66 5.7-5.73a15.856 15.856 0 016.788-2.019 19.188 19.188 0 011.402-.051 17.774 17.774 0 014.541.559 14.722 14.722 0 013.619 1.481q3.54 2.04 5.55 5.73a16.316 16.316 0 011.772 5.373 21.306 21.306 0 01.238 3.237 10.358 10.358 0 01-.004.287l-.01.265a18.248 18.248 0 01-.016.288 12.245 12.245 0 01-.049.577 10.138 10.138 0 01-.041.323zm713.82 0h-27.06V27.3h24.06l-2.34 1.44a13.509 13.509 0 00.003-.265q0-1.676-.422-3.15a9.855 9.855 0 00-.841-2.045q-1.32-2.4-3.63-3.75a9.844 9.844 0 00-3.708-1.243 12.575 12.575 0 00-1.662-.107 11.371 11.371 0 00-3.146.421 9.747 9.747 0 00-2.194.929q-2.34 1.35-3.66 3.78a10.903 10.903 0 00-1.238 4.033 13.628 13.628 0 00-.082 1.517v.96a11.744 11.744 0 00.485 3.425 10.253 10.253 0 00.985 2.245q1.47 2.49 4.11 3.87 2.64 1.38 6.06 1.38a14.342 14.342 0 003.13-.329 12.024 12.024 0 002-.631q2.31-.96 4.05-2.88l3.18 3.72q-2.16 2.52-5.37 3.84a17.552 17.552 0 01-4.768 1.191 21.819 21.819 0 01-2.402.129 20.985 20.985 0 01-4.788-.524 16.692 16.692 0 01-4.182-1.576q-3.87-2.1-6-5.76a15.741 15.741 0 01-2.028-6.373 19.64 19.64 0 01-.102-2.027 18.48 18.48 0 01.584-4.731 15.402 15.402 0 011.486-3.669q2.07-3.66 5.7-5.73a15.856 15.856 0 016.788-2.019 19.188 19.188 0 011.402-.051 17.774 17.774 0 014.541.559 14.722 14.722 0 013.619 1.481q3.54 2.04 5.55 5.73a16.316 16.316 0 011.772 5.373 21.306 21.306 0 01.238 3.237 10.358 10.358 0 01-.004.287l-.01.265a18.248 18.248 0 01-.016.288 12.245 12.245 0 01-.049.577 10.138 10.138 0 01-.041.323zm213.42 0h-27.06V27.3h24.06l-2.34 1.44a13.509 13.509 0 00.003-.265q0-1.676-.422-3.15a9.855 9.855 0 00-.841-2.045q-1.32-2.4-3.63-3.75a9.844 9.844 0 00-3.708-1.243 12.575 12.575 0 00-1.662-.107 11.371 11.371 0 00-3.146.421 9.747 9.747 0 00-2.194.929q-2.34 1.35-3.66 3.78a10.903 10.903 0 00-1.238 4.033 13.628 13.628 0 00-.082 1.517v.96a11.744 11.744 0 00.485 3.425 10.253 10.253 0 00.985 2.245q1.47 2.49 4.11 3.87 2.64 1.38 6.06 1.38a14.342 14.342 0 003.13-.329 12.024 12.024 0 002-.631q2.31-.96 4.05-2.88l3.18 3.72q-2.16 2.52-5.37 3.84a17.552 17.552 0 01-4.768 1.191 21.819 21.819 0 01-2.402.129 20.985 20.985 0 01-4.788-.524 16.692 16.692 0 01-4.182-1.576q-3.87-2.1-6-5.76a15.741 15.741 0 01-2.028-6.373 19.64 19.64 0 01-.102-2.027 18.48 18.48 0 01.584-4.731 15.402 15.402 0 011.486-3.669q2.07-3.66 5.7-5.73a15.856 15.856 0 016.788-2.019 19.188 19.188 0 011.402-.051 17.774 17.774 0 014.541.559 14.722 14.722 0 013.619 1.481q3.54 2.04 5.55 5.73a16.316 16.316 0 011.772 5.373 21.306 21.306 0 01.238 3.237 10.358 10.358 0 01-.004.287l-.01.265a18.248 18.248 0 01-.016.288 12.245 12.245 0 01-.049.577 10.138 10.138 0 01-.041.323zm96.84 0h-27.06V27.3h24.06l-2.34 1.44a13.509 13.509 0 00.003-.265q0-1.676-.422-3.15a9.855 9.855 0 00-.841-2.045q-1.32-2.4-3.63-3.75a9.844 9.844 0 00-3.708-1.243 12.575 12.575 0 00-1.662-.107 11.371 11.371 0 00-3.146.421 9.747 9.747 0 00-2.194.929q-2.34 1.35-3.66 3.78a10.903 10.903 0 00-1.238 4.033 13.628 13.628 0 00-.082 1.517v.96a11.744 11.744 0 00.485 3.425 10.253 10.253 0 00.985 2.245q1.47 2.49 4.11 3.87 2.64 1.38 6.06 1.38a14.342 14.342 0 003.13-.329 12.024 12.024 0 002-.631q2.31-.96 4.05-2.88l3.18 3.72q-2.16 2.52-5.37 3.84a17.552 17.552 0 01-4.768 1.191 21.819 21.819 0 01-2.402.129 20.985 20.985 0 01-4.788-.524 16.692 16.692 0 01-4.182-1.576q-3.87-2.1-6-5.76a15.741 15.741 0 01-2.028-6.373 19.64 19.64 0 01-.102-2.027 18.48 18.48 0 01.584-4.731 15.402 15.402 0 011.486-3.669q2.07-3.66 5.7-5.73a15.856 15.856 0 016.788-2.019 19.188 19.188 0 011.402-.051 17.774 17.774 0 014.541.559 14.722 14.722 0 013.619 1.481q3.54 2.04 5.55 5.73a16.316 16.316 0 011.772 5.373 21.306 21.306 0 01.238 3.237 10.358 10.358 0 01-.004.287l-.01.265a18.248 18.248 0 01-.016.288 12.245 12.245 0 01-.049.577 10.138 10.138 0 01-.041.323zm-860.52-4.32v18.3h-5.76V27.78a15.117 15.117 0 00-.214-2.634q-.253-1.428-.806-2.553a6.966 6.966 0 00-1.23-1.773 7.349 7.349 0 00-3.632-2.037q-1.154-.284-2.516-.302a14.016 14.016 0 00-.182-.001 13.185 13.185 0 00-2.697.264 10.053 10.053 0 00-2.643.936q-2.28 1.2-3.51 3.54a10.045 10.045 0 00-.903 2.535q-.255 1.165-.311 2.515a18.632 18.632 0 00-.016.77v16.38h-5.76V.9h5.76v21.3l-1.14-2.28a11.022 11.022 0 014.699-4.805 13.388 13.388 0 01.101-.055 14.462 14.462 0 014.702-1.532 18.958 18.958 0 012.858-.208 17.209 17.209 0 013.614.364 13.441 13.441 0 013.256 1.136q2.97 1.5 4.65 4.56 1.68 3.06 1.68 7.74zm246.84 0v18.3h-5.76V27.78a15.117 15.117 0 00-.214-2.634q-.253-1.428-.806-2.553a6.966 6.966 0 00-1.23-1.773 7.349 7.349 0 00-3.632-2.037q-1.154-.284-2.516-.302a14.016 14.016 0 00-.182-.001 13.185 13.185 0 00-2.697.264 10.053 10.053 0 00-2.643.936q-2.28 1.2-3.51 3.54a10.045 10.045 0 00-.903 2.535q-.255 1.165-.311 2.515a18.632 18.632 0 00-.016.77v16.38h-5.76V.9h5.76v21.3l-1.14-2.28a11.022 11.022 0 014.699-4.805 13.388 13.388 0 01.101-.055 14.462 14.462 0 014.702-1.532 18.958 18.958 0 012.858-.208 17.209 17.209 0 013.614.364 13.441 13.441 0 013.256 1.136q2.97 1.5 4.65 4.56 1.68 3.06 1.68 7.74zm-644.22 18.3h-6.42l13.68-17.76-.06 2.94-13.02-16.98h6.42l9.96 13.08h-2.46l9.96-13.08h6.3L336 30.72l.06-3.06 13.8 17.76h-6.54l-10.5-13.92 2.34.36-10.32 13.56zm-106.26-18.3v18.3h-5.76V27.78a15.117 15.117 0 00-.214-2.634q-.253-1.428-.806-2.553a6.966 6.966 0 00-1.23-1.773 7.349 7.349 0 00-3.632-2.037q-1.154-.284-2.516-.302a14.016 14.016 0 00-.182-.001 13.185 13.185 0 00-2.697.264 10.053 10.053 0 00-2.643.936q-2.28 1.2-3.51 3.54a10.045 10.045 0 00-.903 2.535q-.255 1.165-.311 2.515a18.632 18.632 0 00-.016.77v16.38h-5.76v-31.8h5.52v8.58l-.9-2.28a11.022 11.022 0 014.699-4.805 13.388 13.388 0 01.101-.055 14.462 14.462 0 014.702-1.532 18.958 18.958 0 012.858-.208 17.209 17.209 0 013.614.364 13.441 13.441 0 013.256 1.136q2.97 1.5 4.65 4.56 1.68 3.06 1.68 7.74zm966.78 0v18.3h-5.76V27.78a15.117 15.117 0 00-.214-2.634q-.253-1.428-.806-2.553a6.966 6.966 0 00-1.23-1.773 7.349 7.349 0 00-3.632-2.037q-1.154-.284-2.516-.302a14.016 14.016 0 00-.182-.001 13.185 13.185 0 00-2.697.264 10.053 10.053 0 00-2.643.936q-2.28 1.2-3.51 3.54a10.045 10.045 0 00-.903 2.535q-.255 1.165-.311 2.515a18.632 18.632 0 00-.016.77v16.38h-5.76v-31.8h5.52v8.58l-.9-2.28a11.022 11.022 0 014.699-4.805 13.388 13.388 0 01.101-.055 14.462 14.462 0 014.702-1.532 18.958 18.958 0 012.858-.208 17.209 17.209 0 013.614.364 13.441 13.441 0 013.256 1.136q2.97 1.5 4.65 4.56 1.68 3.06 1.68 7.74zm125.4 0v18.3H1305V27.78a15.117 15.117 0 00-.214-2.634q-.253-1.428-.806-2.553a6.966 6.966 0 00-1.23-1.773 7.349 7.349 0 00-3.632-2.037q-1.154-.284-2.516-.302a14.016 14.016 0 00-.182-.001 13.185 13.185 0 00-2.697.264 10.053 10.053 0 00-2.643.936q-2.28 1.2-3.51 3.54a10.045 10.045 0 00-.903 2.535q-.255 1.165-.311 2.515a18.632 18.632 0 00-.016.77v16.38h-5.76v-31.8h5.52v8.58l-.9-2.28a11.022 11.022 0 014.699-4.805 13.388 13.388 0 01.101-.055 14.462 14.462 0 014.702-1.532 18.958 18.958 0 012.858-.208 17.209 17.209 0 013.614.364 13.441 13.441 0 013.256 1.136q2.97 1.5 4.65 4.56 1.68 3.06 1.68 7.74zm135.84 0v18.3h-5.76V27.78a15.117 15.117 0 00-.214-2.634q-.253-1.428-.806-2.553a6.966 6.966 0 00-1.23-1.773 7.349 7.349 0 00-3.632-2.037q-1.154-.284-2.516-.302a14.016 14.016 0 00-.182-.001 13.185 13.185 0 00-2.697.264 10.053 10.053 0 00-2.643.936q-2.28 1.2-3.51 3.54a10.045 10.045 0 00-.903 2.535q-.255 1.165-.311 2.515a18.632 18.632 0 00-.016.77v16.38h-5.76v-31.8h5.52v8.58l-.9-2.28a11.022 11.022 0 014.699-4.805 13.388 13.388 0 01.101-.055 14.462 14.462 0 014.702-1.532 18.958 18.958 0 012.858-.208 17.209 17.209 0 013.614.364 13.441 13.441 0 013.256 1.136q2.97 1.5 4.65 4.56 1.68 3.06 1.68 7.74zm-582.9 4.8v-18.3h5.76v17.64q0 3.098.986 5.17a6.953 6.953 0 001.264 1.85 7.349 7.349 0 003.632 2.038q1.154.283 2.516.301a14.016 14.016 0 00.182.001 12.336 12.336 0 002.641-.27 9.463 9.463 0 002.579-.96q2.22-1.23 3.42-3.6a10.661 10.661 0 00.936-2.797q.264-1.358.264-2.933V13.62h5.76v31.8h-5.46v-8.58l.9 2.28q-1.56 3.18-4.68 4.92a13.833 13.833 0 01-5.82 1.698 16.712 16.712 0 01-1.2.042 18.884 18.884 0 01-3.607-.329 14.423 14.423 0 01-3.563-1.171q-3.09-1.5-4.8-4.59-1.49-2.691-1.682-6.59a23.992 23.992 0 01-.028-1.18zM495.96 42.06l2.4-4.56a16.261 16.261 0 002.201 1.239q1.126.528 2.444.972a27.944 27.944 0 00.395.129q3 .96 6.12.96 4.02 0 5.79-1.14a4.1 4.1 0 001.079-.981q.691-.924.691-2.199 0-1.5-1.08-2.34a5.87 5.87 0 00-1.164-.695q-.559-.256-1.228-.446a10.943 10.943 0 00-.458-.119q-1.77-.42-3.93-.75t-4.32-.84a17.883 17.883 0 01-2.919-.95 15.693 15.693 0 01-1.041-.49q-1.8-.93-2.88-2.58-.877-1.34-1.042-3.411a12.595 12.595 0 01-.038-.999 8.624 8.624 0 01.541-3.089 7.942 7.942 0 011.079-1.951 9.399 9.399 0 012.708-2.408 12.55 12.55 0 011.882-.922q2.97-1.17 7.05-1.17 3.12 0 6.33.75a20.606 20.606 0 012.372.698q1.187.433 2.154.983a11.001 11.001 0 01.724.449l-2.46 4.56a14.009 14.009 0 00-3.305-1.642 12.681 12.681 0 00-1.195-.338q-2.34-.54-4.68-.54a18.657 18.657 0 00-1.974.097q-2.329.249-3.666 1.133a4.881 4.881 0 00-1.015.876 3.379 3.379 0 00-.845 2.274q0 1.62 1.11 2.49a6.556 6.556 0 001.23.752q.737.351 1.65.598 1.77.48 3.93.81 2.16.33 4.32.84a18.575 18.575 0 012.667.838 15.768 15.768 0 011.263.572q1.77.9 2.88 2.52 1.11 1.62 1.11 4.32a8.268 8.268 0 01-.488 2.879 7.49 7.49 0 01-1.192 2.101 9.634 9.634 0 01-2.482 2.166 13.301 13.301 0 01-2.258 1.104 16.636 16.636 0 01-3.132.84q-1.549.266-3.317.318a29.69 29.69 0 01-.871.012q-3.96 0-7.53-1.08-3.57-1.08-5.61-2.64zm994.02 0l2.4-4.56a16.261 16.261 0 002.201 1.239q1.126.528 2.444.972a27.944 27.944 0 00.395.129q3 .96 6.12.96 4.02 0 5.79-1.14a4.1 4.1 0 001.079-.981q.691-.924.691-2.199 0-1.5-1.08-2.34a5.87 5.87 0 00-1.164-.695q-.559-.256-1.228-.446a10.943 10.943 0 00-.458-.119q-1.77-.42-3.93-.75t-4.32-.84a17.883 17.883 0 01-2.919-.95 15.693 15.693 0 01-1.041-.49q-1.8-.93-2.88-2.58-.877-1.34-1.042-3.411a12.595 12.595 0 01-.038-.999 8.624 8.624 0 01.541-3.089 7.942 7.942 0 011.079-1.951 9.399 9.399 0 012.708-2.408 12.55 12.55 0 011.882-.922q2.97-1.17 7.05-1.17 3.12 0 6.33.75a20.606 20.606 0 012.372.698q1.187.433 2.154.983a11.001 11.001 0 01.724.449l-2.46 4.56a14.009 14.009 0 00-3.305-1.642 12.681 12.681 0 00-1.195-.338q-2.34-.54-4.68-.54a18.657 18.657 0 00-1.974.097q-2.329.249-3.666 1.133a4.881 4.881 0 00-1.015.876 3.379 3.379 0 00-.845 2.274q0 1.62 1.11 2.49a6.556 6.556 0 001.23.752q.737.351 1.65.598 1.77.48 3.93.81 2.16.33 4.32.84a18.575 18.575 0 012.667.838 15.768 15.768 0 011.263.572q1.77.9 2.88 2.52 1.11 1.62 1.11 4.32a8.268 8.268 0 01-.488 2.879 7.49 7.49 0 01-1.192 2.101 9.634 9.634 0 01-2.482 2.166 13.301 13.301 0 01-2.258 1.104 16.636 16.636 0 01-3.132.84q-1.549.266-3.317.318a29.69 29.69 0 01-.871.012q-3.96 0-7.53-1.08-3.57-1.08-5.61-2.64zm30.06 0l2.4-4.56a16.261 16.261 0 002.201 1.239q1.126.528 2.444.972a27.944 27.944 0 00.395.129q3 .96 6.12.96 4.02 0 5.79-1.14a4.1 4.1 0 001.079-.981q.691-.924.691-2.199 0-1.5-1.08-2.34a5.87 5.87 0 00-1.164-.695q-.559-.256-1.228-.446a10.943 10.943 0 00-.458-.119q-1.77-.42-3.93-.75t-4.32-.84a17.883 17.883 0 01-2.919-.95 15.693 15.693 0 01-1.041-.49q-1.8-.93-2.88-2.58-.877-1.34-1.042-3.411a12.595 12.595 0 01-.038-.999 8.624 8.624 0 01.541-3.089 7.942 7.942 0 011.079-1.951 9.399 9.399 0 012.708-2.408 12.55 12.55 0 011.882-.922q2.97-1.17 7.05-1.17 3.12 0 6.33.75a20.606 20.606 0 012.372.698q1.187.433 2.154.983a11.001 11.001 0 01.724.449l-2.46 4.56a14.009 14.009 0 00-3.305-1.642 12.681 12.681 0 00-1.195-.338q-2.34-.54-4.68-.54a18.657 18.657 0 00-1.974.097q-2.329.249-3.666 1.133a4.881 4.881 0 00-1.015.876 3.379 3.379 0 00-.845 2.274q0 1.62 1.11 2.49a6.556 6.556 0 001.23.752q.737.351 1.65.598 1.77.48 3.93.81 2.16.33 4.32.84a18.575 18.575 0 012.667.838 15.768 15.768 0 011.263.572q1.77.9 2.88 2.52 1.11 1.62 1.11 4.32a8.268 8.268 0 01-.488 2.879 7.49 7.49 0 01-1.192 2.101 9.634 9.634 0 01-2.482 2.166 13.301 13.301 0 01-2.258 1.104 16.636 16.636 0 01-3.132.84q-1.549.266-3.317.318a29.69 29.69 0 01-.871.012q-3.96 0-7.53-1.08-3.57-1.08-5.61-2.64zm-1500 3.36H0v-42h18.84a29.118 29.118 0 014.209.284Q27.319 4.33 30 6.33a9.234 9.234 0 013.837 6.705 12.058 12.058 0 01.063 1.245q0 3.42-1.53 5.76t-4.11 3.6q-2.58 1.26-5.58 1.26l1.08-1.8a17.514 17.514 0 013.29.296 13.436 13.436 0 013.07.964q2.76 1.26 4.38 3.69a9.357 9.357 0 011.353 3.298 13.247 13.247 0 01.267 2.732 11.511 11.511 0 01-.57 3.708 9.447 9.447 0 01-3.48 4.662 13.188 13.188 0 01-3.764 1.867q-1.801.584-4.011.859a34.581 34.581 0 01-4.255.244zm87.24-25.32l-4.38 2.82a10.732 10.732 0 00-1.852-2.139 9.023 9.023 0 00-1.958-1.311q-2.25-1.11-4.83-1.11a12.097 12.097 0 00-3.301.437 10.439 10.439 0 00-2.279.943q-2.46 1.38-3.9 3.87a10.52 10.52 0 00-1.237 3.476 14.048 14.048 0 00-.203 2.434 13.676 13.676 0 00.316 3.009 10.533 10.533 0 001.124 2.931q1.44 2.52 3.9 3.9t5.58 1.38q2.58 0 4.83-1.11a9.367 9.367 0 003.068-2.453 11.694 11.694 0 00.742-.997l4.38 2.76q-1.86 3.3-5.25 5.07a15.615 15.615 0 01-5.544 1.653 19.478 19.478 0 01-2.166.117 19.221 19.221 0 01-5.069-.646 16.309 16.309 0 01-3.601-1.454q-3.81-2.1-5.97-5.76a15.589 15.589 0 01-2.057-6.378 19.373 19.373 0 01-.103-2.022 17.752 17.752 0 01.61-4.731 15.043 15.043 0 011.55-3.669q2.16-3.66 5.97-5.73a17.114 17.114 0 016.45-1.956 21.226 21.226 0 012.22-.114 18.688 18.688 0 014.328.483 15.36 15.36 0 013.382 1.227q3.39 1.71 5.25 5.07zm824.16 0l-4.38 2.82a10.732 10.732 0 00-1.852-2.139 9.023 9.023 0 00-1.958-1.311q-2.25-1.11-4.83-1.11a12.097 12.097 0 00-3.301.437 10.439 10.439 0 00-2.279.943q-2.46 1.38-3.9 3.87a10.52 10.52 0 00-1.237 3.476 14.048 14.048 0 00-.203 2.434 13.676 13.676 0 00.316 3.009 10.533 10.533 0 001.124 2.931q1.44 2.52 3.9 3.9t5.58 1.38q2.58 0 4.83-1.11a9.367 9.367 0 003.068-2.453 11.694 11.694 0 00.742-.997l4.38 2.76q-1.86 3.3-5.25 5.07a15.615 15.615 0 01-5.544 1.653 19.478 19.478 0 01-2.166.117 19.221 19.221 0 01-5.069-.646 16.309 16.309 0 01-3.601-1.454q-3.81-2.1-5.97-5.76a15.589 15.589 0 01-2.057-6.378 19.373 19.373 0 01-.103-2.022 17.752 17.752 0 01.61-4.731 15.043 15.043 0 011.55-3.669q2.16-3.66 5.97-5.73a17.114 17.114 0 016.45-1.956 21.226 21.226 0 012.22-.114 18.688 18.688 0 014.328.483 15.36 15.36 0 013.382 1.227q3.39 1.71 5.25 5.07zM6 8.28v32.28h13.8a23.724 23.724 0 002.817-.156q1.391-.167 2.533-.512a9.126 9.126 0 002.27-1.012 5.491 5.491 0 002.547-3.997 8.492 8.492 0 00.093-1.283 7.987 7.987 0 00-.258-2.094 5.392 5.392 0 00-2.382-3.246q-1.854-1.179-4.861-1.531a23.843 23.843 0 00-2.759-.149H5.46v-4.86H18.3a20.029 20.029 0 002.651-.164q1.348-.18 2.455-.559a8.503 8.503 0 001.974-.957 5.428 5.428 0 002.446-3.934A7.914 7.914 0 0027.9 15q0-3.36-2.52-5.04a8.797 8.797 0 00-2.384-1.088q-1.119-.333-2.465-.478A20.762 20.762 0 0018.3 8.28H6zm1034.58 37.14h-5.76V10.8a12.987 12.987 0 01.38-3.228 9.213 9.213 0 012.35-4.242 8.846 8.846 0 014.056-2.329q1.406-.389 3.083-.45a17.435 17.435 0 01.631-.011q1.86 0 3.57.45a8.625 8.625 0 011.673.622 6.97 6.97 0 011.237.788l-1.74 4.38q-.9-.72-2.04-1.11-1.14-.39-2.4-.39-1.936 0-3.164.833a3.991 3.991 0 00-.676.577 4.468 4.468 0 00-.968 1.679q-.352 1.065-.352 2.491v4.26l.12 2.64v27.66zm37.32 0h-5.76V10.8a12.987 12.987 0 01.38-3.228 9.213 9.213 0 012.35-4.242 8.846 8.846 0 014.056-2.329q1.406-.389 3.083-.45a17.435 17.435 0 01.631-.011q1.86 0 3.57.45a8.625 8.625 0 011.673.622 6.97 6.97 0 011.237.788l-1.74 4.38q-.9-.72-2.04-1.11-1.14-.39-2.4-.39-1.936 0-3.164.833a3.991 3.991 0 00-.676.577 4.468 4.468 0 00-.968 1.679q-.352 1.065-.352 2.491v4.26l.12 2.64v27.66zm307.2 0h-5.76V10.8a12.987 12.987 0 01.38-3.228 9.213 9.213 0 012.35-4.242 8.846 8.846 0 014.056-2.329q1.406-.389 3.083-.45a17.435 17.435 0 01.631-.011q1.86 0 3.57.45a8.625 8.625 0 011.673.622 6.97 6.97 0 011.237.788l-1.74 4.38q-.9-.72-2.04-1.11-1.14-.39-2.4-.39-1.936 0-3.164.833a3.991 3.991 0 00-.676.577 4.468 4.468 0 00-.968 1.679q-.352 1.065-.352 2.491v4.26l.12 2.64v27.66zm-1315.32 0h-5.46V38.7l-.3-1.26V25.98a10.074 10.074 0 00-.251-2.318q-.428-1.81-1.584-3.055a6.358 6.358 0 00-.295-.297 6.675 6.675 0 00-2.465-1.443q-1.035-.353-2.304-.486A15.537 15.537 0 0055.5 18.3q-2.82 0-5.52.93a16.112 16.112 0 00-2.561 1.127 12.581 12.581 0 00-1.999 1.363l-2.4-4.32q2.46-1.98 5.91-3.03 3.45-1.05 7.23-1.05 6.54 0 10.08 3.18a9.946 9.946 0 012.801 4.444q.739 2.287.739 5.276v19.2zm704.46 0h-5.46V38.7l-.3-1.26V25.98a10.074 10.074 0 00-.251-2.318q-.428-1.81-1.584-3.055a6.358 6.358 0 00-.295-.297 6.675 6.675 0 00-2.465-1.443q-1.035-.353-2.304-.486a15.537 15.537 0 00-1.621-.081q-2.82 0-5.52.93a16.112 16.112 0 00-2.561 1.127 12.581 12.581 0 00-1.999 1.363l-2.4-4.32q2.46-1.98 5.91-3.03 3.45-1.05 7.23-1.05 6.54 0 10.08 3.18a9.946 9.946 0 012.801 4.444q.739 2.287.739 5.276v19.2zm-334.68 0h-5.76v-31.8h5.52v8.64l-.54-2.16q1.32-3.3 4.44-5.04a13.121 13.121 0 013.706-1.354q1.599-.338 3.442-.38a23.246 23.246 0 01.532-.006v5.58a4.404 4.404 0 00-.481-.054 3.792 3.792 0 00-.209-.006h-.63a12.485 12.485 0 00-3.134.372 8.826 8.826 0 00-4.186 2.388 8.873 8.873 0 00-2.126 3.691q-.574 1.883-.574 4.289v15.84zm658.68 0h-5.76v-31.8h5.52v8.64l-.54-2.16q1.32-3.3 4.44-5.04a13.121 13.121 0 013.706-1.354q1.599-.338 3.442-.38a23.246 23.246 0 01.532-.006v5.58a4.404 4.404 0 00-.481-.054 3.792 3.792 0 00-.209-.006h-.63a12.485 12.485 0 00-3.134.372 8.826 8.826 0 00-4.186 2.388 8.873 8.873 0 00-2.126 3.691q-.574 1.883-.574 4.289v15.84zM54.9 27.12h10.08v4.14h-9.84a20.281 20.281 0 00-1.927.085q-2.756.264-3.893 1.355a4.823 4.823 0 00-1.192 1.755 4.768 4.768 0 00-.308 1.725 4.735 4.735 0 00.395 1.96q.462 1.03 1.465 1.79a6.343 6.343 0 002.04 1.006q1.354.404 3.12.404a12.314 12.314 0 003.026-.357A9.929 9.929 0 0060.51 39.9q2.43-1.44 3.51-4.2l1.14 3.96a8.778 8.778 0 01-3.369 4.067 11.174 11.174 0 01-.651.403 11.724 11.724 0 01-3.227 1.231q-1.426.328-3.086.399a21.977 21.977 0 01-.947.02 17.69 17.69 0 01-3.128-.263 13.166 13.166 0 01-3.082-.937q-2.67-1.2-4.11-3.33-1.44-2.13-1.44-4.83a9.314 9.314 0 01.649-3.495 8.855 8.855 0 01.581-1.185 7.363 7.363 0 011.944-2.147q.899-.681 2.076-1.213 1.999-.902 4.998-1.158a29.836 29.836 0 012.532-.102zm704.46 0h10.08v4.14h-9.84a20.281 20.281 0 00-1.927.085q-2.756.264-3.893 1.355a4.823 4.823 0 00-1.192 1.755 4.768 4.768 0 00-.308 1.725 4.735 4.735 0 00.395 1.96q.462 1.03 1.465 1.79a6.343 6.343 0 002.04 1.006q1.354.404 3.12.404a12.314 12.314 0 003.026-.357 9.929 9.929 0 002.644-1.083q2.43-1.44 3.51-4.2l1.14 3.96a8.778 8.778 0 01-3.369 4.067 11.174 11.174 0 01-.651.403 11.724 11.724 0 01-3.227 1.231q-1.426.328-3.086.399a21.977 21.977 0 01-.947.02 17.69 17.69 0 01-3.128-.263 13.166 13.166 0 01-3.082-.937q-2.67-1.2-4.11-3.33-1.44-2.13-1.44-4.83a9.314 9.314 0 01.649-3.495 8.855 8.855 0 01.581-1.185 7.363 7.363 0 011.944-2.147q.899-.681 2.076-1.213 1.999-.902 4.998-1.158a29.836 29.836 0 012.532-.102zm-300.12 8.7V6.66H465v28.92a8.28 8.28 0 00.132 1.53q.281 1.492 1.158 2.43a4.173 4.173 0 002.046 1.186q.744.194 1.644.194 2.7 0 4.5-1.5l1.8 4.14a8.165 8.165 0 01-2.536 1.477 9.703 9.703 0 01-.614.203q-1.83.54-3.81.54a14.332 14.332 0 01-2.981-.291q-1.86-.396-3.27-1.329a8.073 8.073 0 01-1.189-.96q-2.438-2.382-2.625-6.658a16.556 16.556 0 01-.015-.722zm208.8 0V6.66h5.76v28.92a8.28 8.28 0 00.132 1.53q.281 1.492 1.158 2.43a4.173 4.173 0 002.046 1.186q.744.194 1.644.194 2.7 0 4.5-1.5l1.8 4.14a8.165 8.165 0 01-2.536 1.477 9.703 9.703 0 01-.614.203q-1.83.54-3.81.54a14.332 14.332 0 01-2.981-.291q-1.86-.396-3.27-1.329a8.073 8.073 0 01-1.189-.96q-2.438-2.382-2.625-6.658a16.556 16.556 0 01-.015-.722zm133.86 0V6.66h5.76v28.92a8.28 8.28 0 00.132 1.53q.281 1.492 1.158 2.43a4.173 4.173 0 002.046 1.186q.744.194 1.644.194 2.7 0 4.5-1.5l1.8 4.14a8.165 8.165 0 01-2.536 1.477 9.703 9.703 0 01-.614.203q-1.83.54-3.81.54a14.332 14.332 0 01-2.981-.291q-1.86-.396-3.27-1.329a8.073 8.073 0 01-1.189-.96q-2.438-2.382-2.625-6.658a16.556 16.556 0 01-.015-.722zm394.98 0V6.66h5.76v28.92a8.28 8.28 0 00.132 1.53q.281 1.492 1.158 2.43a4.173 4.173 0 002.046 1.186q.744.194 1.644.194 2.7 0 4.5-1.5l1.8 4.14a8.165 8.165 0 01-2.536 1.477 9.703 9.703 0 01-.614.203q-1.83.54-3.81.54a14.332 14.332 0 01-2.981-.291q-1.86-.396-3.27-1.329a8.073 8.073 0 01-1.189-.96q-2.438-2.382-2.625-6.658a16.556 16.556 0 01-.015-.722zm-362.155 9.368a18.726 18.726 0 004.795.592 20.227 20.227 0 001.743-.074 16.558 16.558 0 006.747-2.026q3.75-2.1 5.88-5.76a15.158 15.158 0 001.529-3.668 17.988 17.988 0 00.601-4.732 19.624 19.624 0 00-.168-2.607 15.424 15.424 0 00-1.962-5.823q-2.13-3.63-5.88-5.7a16.076 16.076 0 00-3.471-1.415 18.644 18.644 0 00-5.019-.655q-4.8 0-8.52 2.07-3.72 2.07-5.88 5.73a15.043 15.043 0 00-1.55 3.669 17.752 17.752 0 00-.61 4.731q0 4.68 2.16 8.37 2.16 3.69 5.88 5.79a15.687 15.687 0 003.725 1.508zm169.98 0a18.726 18.726 0 004.795.592 20.227 20.227 0 001.743-.074 16.558 16.558 0 006.747-2.026q3.75-2.1 5.88-5.76a15.158 15.158 0 001.529-3.668 17.988 17.988 0 00.601-4.732 19.624 19.624 0 00-.168-2.607 15.424 15.424 0 00-1.962-5.823q-2.13-3.63-5.88-5.7a16.076 16.076 0 00-3.471-1.415 18.644 18.644 0 00-5.019-.655q-4.8 0-8.52 2.07-3.72 2.07-5.88 5.73a15.043 15.043 0 00-1.55 3.669 17.752 17.752 0 00-.61 4.731q0 4.68 2.16 8.37 2.16 3.69 5.88 5.79a15.687 15.687 0 003.725 1.508zm121.2 0a18.726 18.726 0 004.795.592 20.227 20.227 0 001.743-.074 16.558 16.558 0 006.747-2.026q3.75-2.1 5.88-5.76a15.158 15.158 0 001.529-3.668 17.988 17.988 0 00.601-4.732 19.624 19.624 0 00-.168-2.607 15.424 15.424 0 00-1.962-5.823q-2.13-3.63-5.88-5.7a16.076 16.076 0 00-3.471-1.415 18.644 18.644 0 00-5.019-.655q-4.8 0-8.52 2.07-3.72 2.07-5.88 5.73a15.043 15.043 0 00-1.55 3.669 17.752 17.752 0 00-.61 4.731q0 4.68 2.16 8.37 2.16 3.69 5.88 5.79a15.687 15.687 0 003.725 1.508zM120.48 45.42h-5.76V.9h5.76v44.52zm138.78 0h-5.52v-8.58l.36-7.38-.6-7.38V.9h5.76v44.52zm1092.18 0h-5.52v-8.58l.36-7.38-.6-7.38V.9h5.76v44.52zm-1113.924-.285a17.899 17.899 0 004.884.645 17.5 17.5 0 001.768-.087 14.191 14.191 0 005.612-1.743 12.261 12.261 0 002.577-1.94 13.92 13.92 0 002.553-3.49q1.875-3.572 1.89-8.916a30.672 30.672 0 000-.084 28.046 28.046 0 00-.032-1.362q-.219-4.502-1.918-7.638a15.877 15.877 0 00-.708-1.184 12.759 12.759 0 00-4.482-4.216 13.905 13.905 0 00-2.54-1.097 15.468 15.468 0 00-4.72-.703 19.66 19.66 0 00-1.836.084 15.979 15.979 0 00-6.414 1.956q-3.63 2.04-5.73 5.67-2.1 3.63-2.1 8.49a20.263 20.263 0 00.185 2.78 15.754 15.754 0 001.915 5.74q2.1 3.66 5.73 5.7a15.371 15.371 0 003.366 1.395zm1092.18 0a17.899 17.899 0 004.884.645 17.5 17.5 0 001.768-.087 14.191 14.191 0 005.612-1.743 12.261 12.261 0 002.577-1.94 13.92 13.92 0 002.553-3.49q1.875-3.572 1.89-8.916a30.672 30.672 0 000-.084 28.046 28.046 0 00-.032-1.362q-.219-4.502-1.918-7.638a15.877 15.877 0 00-.708-1.184 12.759 12.759 0 00-4.482-4.216 13.905 13.905 0 00-2.54-1.097 15.468 15.468 0 00-4.72-.703 19.66 19.66 0 00-1.836.084 15.979 15.979 0 00-6.414 1.956q-3.63 2.04-5.73 5.67-2.1 3.63-2.1 8.49a20.263 20.263 0 00.185 2.78 15.754 15.754 0 001.915 5.74q2.1 3.66 5.73 5.7a15.371 15.371 0 003.366 1.395zm-956.676.645q-3.96 0-7.23-1.83a12.992 12.992 0 01-4.645-4.452 15.978 15.978 0 01-.575-.978q-1.699-3.136-1.918-7.638a28.046 28.046 0 01-.032-1.362 25.624 25.624 0 01.266-3.797q.311-2.076.988-3.805a13.903 13.903 0 01.636-1.398q1.89-3.6 5.16-5.4a14.631 14.631 0 016.095-1.756 17.686 17.686 0 011.255-.044 18.252 18.252 0 014.636.568 15.124 15.124 0 013.644 1.472q3.6 2.04 5.7 5.67a15.507 15.507 0 011.895 5.573 20.098 20.098 0 01.205 2.917 19.02 19.02 0 01-.521 4.544A15.245 15.245 0 01387 38.04q-2.1 3.66-5.7 5.7a15.706 15.706 0 01-5.999 1.912 19.768 19.768 0 01-2.281.128zm-11.1 11.28h-5.76V13.62h5.52v8.58l-.36 7.38.6 7.38v20.1zM489 45.42h-5.76v-31.8H489v31.8zm167.22 0h-5.76v-31.8h5.76v31.8zm749.22 0h-5.76v-31.8h5.76v31.8zM127.62 30.06l-8.22 7.68.12-7.38 18.3-16.74h6.96l-14.04 13.8-3.12 2.64zm711.9 10.68a11.634 11.634 0 003.412-.486 10.255 10.255 0 002.078-.894q2.43-1.38 3.81-3.93 1.38-2.55 1.38-5.91a14.234 14.234 0 00-.283-2.908 10.626 10.626 0 00-1.097-3.002q-1.38-2.49-3.81-3.87t-5.49-1.38q-3.06 0-5.46 1.38t-3.84 3.87a10.52 10.52 0 00-1.237 3.476 14.048 14.048 0 00-.203 2.434q0 3.36 1.44 5.91a10.455 10.455 0 002.633 3.115 9.996 9.996 0 001.207.815 10.42 10.42 0 004.336 1.332 12.804 12.804 0 001.124.048zm169.98 0a11.634 11.634 0 003.412-.486 10.255 10.255 0 002.078-.894q2.43-1.38 3.81-3.93 1.38-2.55 1.38-5.91a14.234 14.234 0 00-.283-2.908 10.626 10.626 0 00-1.097-3.002q-1.38-2.49-3.81-3.87t-5.49-1.38q-3.06 0-5.46 1.38t-3.84 3.87a10.52 10.52 0 00-1.237 3.476 14.048 14.048 0 00-.203 2.434q0 3.36 1.44 5.91a10.455 10.455 0 002.633 3.115 9.996 9.996 0 001.207.815 10.42 10.42 0 004.336 1.332 12.804 12.804 0 001.124.048zm121.2 0a11.634 11.634 0 003.412-.486 10.255 10.255 0 002.078-.894q2.43-1.38 3.81-3.93 1.38-2.55 1.38-5.91a14.234 14.234 0 00-.283-2.908A10.626 10.626 0 001140 23.61q-1.38-2.49-3.81-3.87t-5.49-1.38q-3.06 0-5.46 1.38t-3.84 3.87a10.52 10.52 0 00-1.237 3.476 14.048 14.048 0 00-.203 2.434q0 3.36 1.44 5.91a10.455 10.455 0 002.633 3.115 9.996 9.996 0 001.207.815 10.42 10.42 0 004.336 1.332 12.804 12.804 0 001.124.048zm-758.16 0a11.634 11.634 0 003.412-.486 10.255 10.255 0 002.078-.894q2.43-1.38 3.84-3.93a11.216 11.216 0 001.272-3.889 14.384 14.384 0 00.138-2.021 13.941 13.941 0 00-.29-2.908 10.483 10.483 0 00-1.12-3.002q-1.41-2.49-3.84-3.87-2.43-1.38-5.49-1.38a11.247 11.247 0 00-3.692.595 10.337 10.337 0 00-1.738.785q-2.43 1.38-3.84 3.87a10.666 10.666 0 00-1.212 3.476 14.34 14.34 0 00-.198 2.434q0 3.36 1.41 5.91 1.41 2.55 3.84 3.93a10.667 10.667 0 004.873 1.368 12.708 12.708 0 00.557.012zm-129.66 0a11.247 11.247 0 003.692-.594 10.337 10.337 0 001.738-.786q2.43-1.38 3.84-3.93a11.216 11.216 0 001.272-3.889 14.384 14.384 0 00.138-2.021 13.941 13.941 0 00-.29-2.908 10.483 10.483 0 00-1.12-3.002q-1.41-2.49-3.84-3.87a10.667 10.667 0 00-4.873-1.368 12.708 12.708 0 00-.557-.012q-3.06 0-5.46 1.38t-3.84 3.87a10.52 10.52 0 00-1.237 3.476 14.048 14.048 0 00-.203 2.434q0 3.36 1.44 5.91a10.455 10.455 0 002.633 3.115 9.996 9.996 0 001.207.815 10.42 10.42 0 004.336 1.332 12.804 12.804 0 001.124.048zm1092.18 0a11.247 11.247 0 003.692-.594 10.337 10.337 0 001.738-.786q2.43-1.38 3.84-3.93a11.216 11.216 0 001.272-3.889 14.384 14.384 0 00.138-2.021 13.941 13.941 0 00-.29-2.908 10.483 10.483 0 00-1.12-3.002q-1.41-2.49-3.84-3.87a10.667 10.667 0 00-4.873-1.368 12.708 12.708 0 00-.557-.012q-3.06 0-5.46 1.38t-3.84 3.87a10.52 10.52 0 00-1.237 3.476 14.048 14.048 0 00-.203 2.434q0 3.36 1.44 5.91a10.455 10.455 0 002.633 3.115 9.996 9.996 0 001.207.815 10.42 10.42 0 004.336 1.332 12.804 12.804 0 001.124.048zM146.1 45.42h-7.08l-12.48-15.48 3.72-4.62 15.84 20.1zm422.16 8.88h-3.78l3-12.12.78 3.48a4.617 4.617 0 01-1.483-.229 3.938 3.938 0 01-1.427-.851 3.565 3.565 0 01-1.106-2.111 5.136 5.136 0 01-.064-.829 4.519 4.519 0 01.208-1.401 3.727 3.727 0 01.962-1.539q1.17-1.14 2.85-1.14a4.202 4.202 0 011.345.207 3.497 3.497 0 011.475.963 4.043 4.043 0 011.067 2.536 5.321 5.321 0 01.013.374q0 .6-.09 1.17a8.868 8.868 0 01-.084.453q-.053.249-.124.526a16.472 16.472 0 01-.092.341 13.798 13.798 0 01-.183.595q-.09.276-.202.585a30.009 30.009 0 01-.245.65l-2.82 8.34zm-94.14-35.94h-20.28v-4.74h20.28v4.74zm208.8 0h-20.28v-4.74h20.28v4.74zm133.86 0H796.5v-4.74h20.28v4.74zm232.92 0h-20.28v-4.74h20.28v4.74zm37.32 0h-20.28v-4.74h20.28v4.74zm124.74 0h-20.28v-4.74h20.28v4.74zm182.46 0h-20.28v-4.74h20.28v4.74zm-159.24 13.08h-16.14v-4.98h16.14v4.98zM484.715 7.278a4.292 4.292 0 001.405.222 4.986 4.986 0 00.553-.03 3.62 3.62 0 002.267-1.08 3.742 3.742 0 00.793-1.196 4.006 4.006 0 00.287-1.534 4.303 4.303 0 00-.002-.121 3.432 3.432 0 00-1.108-2.489 3.705 3.705 0 00-1.407-.842A4.417 4.417 0 00486.12 0q-1.68 0-2.79 1.08a3.587 3.587 0 00-.841 1.236 3.878 3.878 0 00-.269 1.464 4.336 4.336 0 00.001.073 3.535 3.535 0 001.109 2.567 3.687 3.687 0 001.385.858zm167.22 0a4.292 4.292 0 001.405.222 4.986 4.986 0 00.553-.03 3.62 3.62 0 002.267-1.08 3.742 3.742 0 00.793-1.196 4.006 4.006 0 00.287-1.534 4.303 4.303 0 00-.002-.121 3.432 3.432 0 00-1.108-2.489 3.705 3.705 0 00-1.407-.842A4.417 4.417 0 00653.34 0q-1.68 0-2.79 1.08a3.587 3.587 0 00-.841 1.236 3.878 3.878 0 00-.269 1.464 4.336 4.336 0 00.001.073 3.535 3.535 0 001.109 2.567 3.687 3.687 0 001.385.858zm749.22 0a4.292 4.292 0 001.405.222 4.986 4.986 0 00.553-.03 3.62 3.62 0 002.267-1.08 3.742 3.742 0 00.793-1.196 4.006 4.006 0 00.287-1.534 4.303 4.303 0 00-.002-.121 3.432 3.432 0 00-1.108-2.489 3.705 3.705 0 00-1.407-.842A4.417 4.417 0 001402.56 0q-1.68 0-2.79 1.08a3.587 3.587 0 00-.841 1.236 3.878 3.878 0 00-.269 1.464 4.336 4.336 0 00.001.073 3.535 3.535 0 001.109 2.567 3.687 3.687 0 001.385.858z"
        fontSize="12"
        vectorEffect="non-scaling-stroke"
      ></path>
    </svg>